<?xml version="1.0" encoding="UTF-8"?>
<svg id="Layer_1" xmlns="http://www.w3.org/2000/svg" version="1.1" viewBox="0 0 424 241.16">
  <!-- Generator: Adobe Illustrator 29.5.1, SVG Export Plug-In . SVG Version: 2.1.0 Build 141)  -->
  <defs>
    <style>
      .st0 {
        fill: none;
      }

      .st1 {
        fill: #7b7c7f;
      }

      .st2 {
        fill: #0066b2;
      }

      .st3 {
        fill: #0669b3;
      }

      .st4 {
        fill: #fff;
      }

      .st5 {
        fill: #7c7d80;
      }
    </style>
  </defs>
  <g>
    <path class="st4" d="M214.99,84.76c0-1.14-.05-2.13-.13-2.97,1.24.6,2.36,1.02,3.36,1.27,1,.25,1.96.37,2.89.37s1.73-.15,2.51-.46c.78-.31,1.37-.74,1.78-1.3.41-.56.62-1.2.65-1.92.02-.42-.04-.81-.16-1.18-.12-.37-.32-.74-.59-1.12-.28-.38-.77-.89-1.47-1.53-.7-.64-1.69-1.53-2.97-2.66l-1.28-1.13c-.48-.43-.92-.86-1.31-1.29-.39-.43-.72-.84-.98-1.23-.26-.39-.46-.75-.6-1.06-.14-.32-.24-.67-.31-1.06-.07-.39-.1-.79-.08-1.2.03-1.03.35-2,.94-2.9.59-.9,1.46-1.62,2.6-2.16,1.14-.54,2.64-.81,4.49-.81,1.32,0,2.94.18,4.86.54,0,.77.05,1.72.15,2.85-1.8-.65-3.45-.97-4.94-.97-1.03,0-1.89.17-2.59.51-.7.34-1.24.78-1.62,1.31-.38.53-.57,1.08-.59,1.64-.01.34.03.66.11.98.08.32.22.62.4.91.26.42.59.84.98,1.27.39.43.93.95,1.63,1.56.17.14.84.71,1.99,1.7,1.15.98,1.99,1.75,2.51,2.29.53.54.94,1.04,1.24,1.51.31.46.54.96.7,1.5.16.53.23,1.11.21,1.74-.03.96-.27,1.85-.71,2.66-.44.81-1.05,1.48-1.84,1.99-.79.52-1.65.88-2.6,1.1-.95.22-1.94.32-2.96.32-.82,0-1.67-.06-2.54-.19-.87-.13-2.11-.42-3.72-.86Z"/>
    <path class="st4" d="M237.15,85.46l.7-6.8.96-12.72.15-2.77c.04-.7.07-1.5.1-2.41,2.75.01,5.56.02,8.45.02l5.82-.02h1.86c-.11.84-.2,1.68-.25,2.53l-1.62-.09c-.4-.03-1.09-.04-2.07-.06-.98-.01-1.95-.02-2.91-.02-2.87,0-4.87.02-6.01.06l-.63,8.47c1.87.04,3.55.05,5.04.05,1.62,0,3.74-.02,6.37-.07-.11.84-.2,1.68-.25,2.5l-6.28-.05c-1.23,0-2.94.03-5.13.07l-.64,8.94,1.9.02c3.44,0,5.73-.01,6.86-.04,1.13-.02,2.45-.08,3.96-.16-.12.89-.2,1.74-.26,2.55-2.93-.03-5.41-.04-7.42-.04l-8.69.04Z"/>
    <path class="st4" d="M261.91,85.46c.39-3.11.77-6.91,1.13-11.41.36-4.49.65-8.92.85-13.29.85.01,1.49.02,1.94.02l1.72-.02-1,11.46-.83,10.81,3.5.02c2.61,0,4.44,0,5.51-.03,1.06-.02,2.09-.06,3.09-.12-.1.76-.19,1.62-.28,2.55-2.79-.03-5.26-.04-7.4-.04l-8.25.04Z"/>
    <path class="st4" d="M284.2,85.46l.41-4.16.67-8.67.54-8.54c.03-.49.05-.99.07-1.48l.05-1.85,1.84.02,1.73-.02c-.32,3.01-.59,6.16-.81,9.44-.37,5.26-.68,10.34-.93,15.25l-1.68-.04c-.21,0-.84.01-1.89.04Z"/>
    <path class="st4" d="M296,84.76c0-1.14-.05-2.13-.13-2.97,1.27.6,2.42,1.02,3.44,1.27,1.02.25,2.01.37,2.96.37s1.77-.15,2.57-.46c.8-.31,1.41-.74,1.82-1.3.42-.56.64-1.2.66-1.92.02-.42-.04-.81-.16-1.18-.12-.37-.32-.74-.61-1.12-.29-.38-.79-.89-1.5-1.53-.72-.64-1.73-1.53-3.05-2.66l-1.31-1.13c-.5-.43-.95-.86-1.35-1.29-.4-.43-.74-.84-1-1.23-.27-.39-.47-.75-.61-1.06-.14-.32-.25-.67-.32-1.06-.07-.39-.1-.79-.09-1.2.04-1.03.36-2,.96-2.9.61-.9,1.5-1.62,2.67-2.16,1.17-.54,2.71-.81,4.6-.81,1.35,0,3.02.18,4.98.54,0,.77.05,1.72.16,2.85-1.84-.65-3.53-.97-5.06-.97-1.05,0-1.94.17-2.66.51-.72.34-1.27.78-1.66,1.31-.39.53-.59,1.08-.61,1.64-.01.34.03.66.11.98.09.32.22.62.41.91.26.42.6.84,1,1.27.4.43.96.95,1.67,1.56.18.14.86.71,2.04,1.7,1.18.98,2.04,1.75,2.58,2.29.54.54.96,1.04,1.28,1.51.31.46.55.96.72,1.5.16.53.24,1.11.21,1.74-.03.96-.28,1.85-.73,2.66-.45.81-1.08,1.48-1.88,1.99-.81.52-1.7.88-2.67,1.1-.97.22-1.98.32-3.03.32-.84,0-1.71-.06-2.6-.19-.89-.13-2.16-.42-3.81-.86Z"/>
    <path class="st2" d="M214.99,84.76c0-1.14-.05-2.13-.13-2.97,1.24.6,2.36,1.02,3.36,1.27,1,.25,1.96.37,2.89.37s1.73-.15,2.51-.46c.78-.31,1.37-.74,1.78-1.3.41-.56.62-1.2.65-1.92.02-.42-.04-.81-.16-1.18-.12-.37-.32-.74-.59-1.12-.28-.38-.77-.89-1.47-1.53-.7-.64-1.69-1.53-2.97-2.66l-1.28-1.13c-.48-.43-.92-.86-1.31-1.29-.39-.43-.72-.84-.98-1.23-.26-.39-.46-.75-.6-1.06-.14-.32-.24-.67-.31-1.06-.07-.39-.1-.79-.08-1.2.03-1.03.35-2,.94-2.9.59-.9,1.46-1.62,2.6-2.16,1.14-.54,2.64-.81,4.49-.81,1.32,0,2.94.18,4.86.54,0,.77.05,1.72.15,2.85-1.8-.65-3.45-.97-4.94-.97-1.03,0-1.89.17-2.59.51-.7.34-1.24.78-1.62,1.31-.38.53-.57,1.08-.59,1.64-.01.34.03.66.11.98.08.32.22.62.4.91.26.42.59.84.98,1.27.39.43.93.95,1.63,1.56.17.14.84.71,1.99,1.7,1.15.98,1.99,1.75,2.51,2.29.53.54.94,1.04,1.24,1.51.31.46.54.96.7,1.5.16.53.23,1.11.21,1.74-.03.96-.27,1.85-.71,2.66-.44.81-1.05,1.48-1.84,1.99-.79.52-1.65.88-2.6,1.1-.95.22-1.94.32-2.96.32-.82,0-1.67-.06-2.54-.19-.87-.13-2.11-.42-3.72-.86Z"/>
    <path class="st2" d="M237.15,85.46l.7-6.8.96-12.72.15-2.77c.04-.7.07-1.5.1-2.41,2.75.01,5.56.02,8.45.02l5.82-.02h1.86c-.11.84-.2,1.68-.25,2.53l-1.62-.09c-.4-.03-1.09-.04-2.07-.06-.98-.01-1.95-.02-2.91-.02-2.87,0-4.87.02-6.01.06l-.63,8.47c1.87.04,3.55.05,5.04.05,1.62,0,3.74-.02,6.37-.07-.11.84-.2,1.68-.25,2.5l-6.28-.05c-1.23,0-2.94.03-5.13.07l-.64,8.94,1.9.02c3.44,0,5.73-.01,6.86-.04,1.13-.02,2.45-.08,3.96-.16-.12.89-.2,1.74-.26,2.55-2.93-.03-5.41-.04-7.42-.04l-8.69.04Z"/>
    <path class="st2" d="M261.91,85.46c.39-3.11.77-6.91,1.13-11.41.36-4.49.65-8.92.85-13.29.85.01,1.49.02,1.94.02l1.72-.02-1,11.46-.83,10.81,3.5.02c2.61,0,4.44,0,5.51-.03,1.06-.02,2.09-.06,3.09-.12-.1.76-.19,1.62-.28,2.55-2.79-.03-5.26-.04-7.4-.04l-8.25.04Z"/>
    <path class="st2" d="M284.2,85.46l.41-4.16.67-8.67.54-8.54c.03-.49.05-.99.07-1.48l.05-1.85,1.84.02,1.73-.02c-.32,3.01-.59,6.16-.81,9.44-.37,5.26-.68,10.34-.93,15.25l-1.68-.04c-.21,0-.84.01-1.89.04Z"/>
    <path class="st2" d="M296,84.76c0-1.14-.05-2.13-.13-2.97,1.27.6,2.42,1.02,3.44,1.27,1.02.25,2.01.37,2.96.37s1.77-.15,2.57-.46c.8-.31,1.41-.74,1.82-1.3.42-.56.64-1.2.66-1.92.02-.42-.04-.81-.16-1.18-.12-.37-.32-.74-.61-1.12-.29-.38-.79-.89-1.5-1.53-.72-.64-1.73-1.53-3.05-2.66l-1.31-1.13c-.5-.43-.95-.86-1.35-1.29-.4-.43-.74-.84-1-1.23-.27-.39-.47-.75-.61-1.06-.14-.32-.25-.67-.32-1.06-.07-.39-.1-.79-.09-1.2.04-1.03.36-2,.96-2.9.61-.9,1.5-1.62,2.67-2.16,1.17-.54,2.71-.81,4.6-.81,1.35,0,3.02.18,4.98.54,0,.77.05,1.72.16,2.85-1.84-.65-3.53-.97-5.06-.97-1.05,0-1.94.17-2.66.51-.72.34-1.27.78-1.66,1.31-.39.53-.59,1.08-.61,1.64-.01.34.03.66.11.98.09.32.22.62.41.91.26.42.6.84,1,1.27.4.43.96.95,1.67,1.56.18.14.86.71,2.04,1.7,1.18.98,2.04,1.75,2.58,2.29.54.54.96,1.04,1.28,1.51.31.46.55.96.72,1.5.16.53.24,1.11.21,1.74-.03.96-.28,1.85-.73,2.66-.45.81-1.08,1.48-1.88,1.99-.81.52-1.7.88-2.67,1.1-.97.22-1.98.32-3.03.32-.84,0-1.71-.06-2.6-.19-.89-.13-2.16-.42-3.81-.86Z"/>
    <path class="st2" d="M318.51,85.46l.62-6.8.86-12.72.14-2.77c.03-.7.06-1.5.09-2.41,2.45.01,4.97.02,7.54.02l5.2-.02h1.66c-.1.84-.18,1.68-.23,2.53l-1.45-.09c-.36-.03-.97-.04-1.85-.06-.87-.01-1.74-.02-2.6-.02-2.56,0-4.35.02-5.36.06l-.56,8.47c1.67.04,3.17.05,4.5.05,1.45,0,3.34-.02,5.69-.07-.1.84-.18,1.68-.23,2.5l-5.61-.05c-1.1,0-2.63.03-4.58.07l-.58,8.94,1.7.02c3.08,0,5.12-.01,6.13-.04,1-.02,2.18-.08,3.53-.16-.1.89-.18,1.74-.23,2.55-2.62-.03-4.83-.04-6.63-.04l-7.76.04Z"/>
  </g>
  <g>
    <path class="st0" d="M80.68,49.13c-.47-.22-.93-.45-1.39-.67-1.95,1.43-3.89,2.92-5.81,4.51-5.21,4.32-10.25,9.24-14.83,14.74-.3.33-.57.69-.84,1.04l-.83,1.06-.83,1.06-.42.53-.25.34c1.57.69,3.16,1.41,4.82,2.2.9.43,1.81.88,2.74,1.33.46.23.93.46,1.39.69.47.24.93.48,1.41.73.94.49,1.9.99,2.86,1.49.95.53,1.92,1.06,2.9,1.6.4.22.81.45,1.21.68,2.28-2.56,4.56-4.91,6.78-7.08,3.01-2.96,5.98-5.53,8.74-7.85,3.6-2.96,6.87-5.39,9.81-7.45-.24-.13-.46-.26-.7-.4-.27-.15-.53-.31-.81-.45-.28-.14-.55-.29-.83-.43-.55-.29-1.11-.58-1.67-.87-1.11-.59-2.24-1.19-3.36-1.8-.56-.32-1.14-.59-1.71-.87-.57-.28-1.15-.57-1.73-.86-1.14-.58-2.27-1.16-3.38-1.72-1.12-.52-2.22-1.03-3.29-1.54Z"/>
    <path class="st0" d="M90.06,99.43c-5.73-4.45-11.28-8.44-16.56-12.02-5.52,7.47-10.7,15.89-14.89,24.85,3.48,2.07,7.03,4.34,10.58,6.8,2.69,1.86,5.4,3.83,8.09,5.91,4.04-5.57,8.1-10.55,12-14.91"/>
    <path class="st0" d="M95.49,103.73c-.84.77-1.56,1.42-2,1.79,0,0-.02,0-.02-.02-.02.04-.04.05-.07.09,0,0-.02.02-.04.04-.16.16-.32.33-.47.49.05-1.37.19-2.74.42-4.13l2.18,1.74Z"/>
    <path class="st0" d="M90.57,117.3c-2.79,3.71-5.61,7.58-8.38,11.55,6.54,5.31,13.01,11.18,19.19,17.54.07.05.12.12.19.19,2.9-2.55,5.69-4.99,8.37-7.35"/>
    <path class="st0" d="M116.57,133.44c-1.18,1.02-2.37,2.07-3.59,3.15-10.41-4.39-17.54-12.76-19.55-23.04.46-.6.91-1.2,1.37-1.78.51-.63,1.16-1.37,1.9-2.18,1.32,10.44,8.4,19.91,19.86,23.85Z"/>
    <polyline class="st0" points="119.8 130.61 124.3 126.69 100.18 107.46"/>
    <path class="st0" d="M77.04,168.21c3.5-3.1,7.23-6.39,11.08-9.79,0,.02,0,.05,0,.07l8.87-7.84-6.1-5.75.03-.02c-4.06-3.94-8.11-7.67-12.1-11.13-5.13,7.63-9.66,14.87-13.53,21.53-.34.58-.64,1.13-.97,1.71,3.18,2.49,6.33,5.14,9.39,7.99,1.15,1.07,2.25,2.15,3.33,3.23Z"/>
    <path class="st0" d="M35.12,100.62c.13-.45.27-.9.41-1.34.28-.9.55-1.8.85-2.7.31-.89.63-1.78.95-2.68l.24-.67.26-.66.53-1.33c.35-.89.7-1.78,1.11-2.65.39-.87.79-1.75,1.18-2.63.43-.86.86-1.72,1.29-2.59.22-.43.42-.87.66-1.29.23-.42.46-.84.7-1.26.47-.83.91-1.67,1.4-2.48,1-1.6,1.94-3.21,3.01-4.72.36-.51.71-1.03,1.06-1.54-3.41-1.9-6.42-3.5-8.94-4.78-6.2,9.64-10.77,20.41-13.31,31.96,2.63.38,5.45,1.02,8.43,1.96.06-.2.11-.41.16-.61Z"/>
    <path class="st0" d="M50.55,69.65c.11-.15.23-.31.34-.46.27-.36.53-.72.81-1.08.28-.35.56-.69.85-1.03.56-.69,1.12-1.37,1.68-2.05,4.55-5.34,9.43-9.9,14.3-13.82.62-.48,1.23-.96,1.84-1.44.61-.47,1.2-.96,1.82-1.39.9-.65,1.78-1.27,2.66-1.9-.11-.05-.23-.1-.35-.15-.25-.11-.49-.22-.73-.32-.24-.1-.49-.19-.73-.29-.48-.19-.96-.38-1.43-.57-.47-.19-.93-.38-1.39-.56-.23-.09-.46-.19-.68-.28-.22-.09-.45-.16-.68-.24-1.79-.62-3.45-1.28-5.02-1.73-.25-.08-.48-.15-.72-.22-8.73,6.65-16.32,14.72-22.42,23.87,2.71.9,5.89,2.05,9.46,3.5.13.05.27.12.4.17Z"/>
    <path class="st0" d="M78.98,43.04c.23.08.46.16.68.23.52-.34,1.04-.66,1.57-.97.6-.36,1.19-.71,1.78-1.06.59-.35,1.17-.7,1.74-1.04.59-.32,1.18-.64,1.75-.96,1.16-.63,2.29-1.25,3.42-1.84,1.14-.56,2.25-1.11,3.34-1.65.54-.27,1.09-.53,1.62-.79.55-.24,1.08-.49,1.62-.72,2.2-1,4.32-1.9,6.35-2.72-1.11-.41-2.24-.82-3.36-1.21-3.19-1.11-6.25-2.04-9.13-2.84-8.65,3.02-16.76,7.2-24.12,12.37,2.84.44,5.95,1.12,9.24,2.05,1.14.37,2.31.75,3.5,1.15Z"/>
    <path class="st0" d="M53.02,178.67c1.44,1.1,2.87,2.25,4.23,3.51.68.63,1.29,1.27,1.92,1.91,1.48-1.32,3.12-2.78,4.89-4.36,2.7-2.4,5.74-5.1,8.99-7.98-.99-.96-1.97-1.93-2.98-2.88-2.79-2.6-5.56-5.02-8.31-7.33-2.34,4.23-4.41,8.18-6.16,11.73-.94,1.91-1.8,3.71-2.58,5.39Z"/>
    <path class="st0" d="M121.42,179.98c-.58.11-1.18.19-1.79.25.46-.3.91-.58,1.35-.88.14.21.3.42.44.63Z"/>
    <path class="st0" d="M123.63,183.18c2.04,3.01,3.9,5.99,5.66,8.96-7.36,2.55-16.33,5.19-26.82,7.05-1.09.18-2.14.33-3.22.49-1.04-2.43-2.3-4.97-3.76-7.61.44-.14.9-.3,1.34-.46.23-.07.46-.16.67-.23.23-.09.44-.18.65-.25.44-.18.9-.35,1.34-.53.88-.35,1.78-.69,2.67-1.07.88-.39,1.78-.79,2.67-1.18,1.44-.65,2.86-1.34,4.25-2.06.56-.28,1.12-.56,1.67-.86,1.16-.62,2.3-1.25,3.43-1.9"/>
    <path class="st0" d="M126.76,197.46c-.78.31-1.57.63-2.37.95-6.38,2.56-13.58,4.73-21.01,6.03-.74.13-1.46.2-2.2.31.61,1.79,1.13,3.51,1.52,5.1,1.4,0,2.8,0,4.21-.05,11.47-.38,21.16-2.48,28.88-5.02-.85-1.93-1.77-3.89-2.78-5.88-.58-1.14-1.2-2.29-1.84-3.44-.71.32-1.42.65-2.15.98-.75.33-1.5.69-2.27,1.02Z"/>
    <path class="st0" d="M31.21,135.94c-.13-3.25-.17-6.6-.04-10.03.15-3.43.41-6.93.89-10.48.11-.89.26-1.78.4-2.67l.21-1.34c.09-.45.17-.89.25-1.34.18-.89.33-1.8.53-2.69.21-.9.41-1.8.62-2.7.06-.28.14-.56.21-.83-1.64-.68-3.24-1.29-4.77-1.79-1.16-.38-2.28-.68-3.37-.95-1.26,6.28-1.93,12.77-1.93,19.42,0,5.35.44,10.59,1.27,15.71,1.82.4,3.79.97,5.87,1.7-.04-.66-.1-1.32-.13-1.99Z"/>
    <path class="st0" d="M106.56,180.58c-1.42.69-2.86,1.37-4.36,2.04-.86.39-1.72.77-2.57,1.16s-1.72.72-2.57,1.09c-1.6.7-3.2,1.3-4.78,1.92-.54-.83-1.09-1.65-1.67-2.48-2.86-4.11-6.26-8.33-10.16-12.55,2.83-2.09,5.8-4.36,8.86-6.77l.02.02,12.29-9.91,3.45,4.2"/>
    <path class="st0" d="M115.51,172.05c-.12.02-.23.02-.35.02-2.27,0-4.03-1.02-4.34-2.43.18-.04.42-.07.72-.11.6-.07,1.2-.12,1.79-.18h.02c.12.16.25.3.35.46.12.14.26.28.37.44.49.6.97,1.2,1.44,1.79Z"/>
    <path class="st0" d="M115.99,175.69c-1.76.97-3.57,1.93-5.48,2.92-3.27-1.51-5.96-4.06-6.91-7.72-.58-2.27.81-6.52,3.8-8.79l3.15,3.87c-3.76.6-3.6,2.74-3.32,4.32.76,3.46,4.36,5.75,8.77,5.4Z"/>
    <path class="st0" d="M60.07,153.79s.03-.07.05-.1c.23-.48.46-.96.69-1.44.24-.48.48-.96.73-1.44.49-.97.99-1.94,1.49-2.92.52-.97,1.05-1.94,1.58-2.93.27-.49.54-.98.81-1.48.28-.49.56-.98.85-1.47.57-.98,1.14-1.97,1.72-2.97.6-.98,1.2-1.97,1.82-2.96,1.2-1.99,2.52-3.93,3.82-5.9.12-.19.25-.35.37-.54-2.25-1.86-4.47-3.66-6.67-5.37-3.62-2.81-7.17-5.4-10.62-7.77-1.68,3.93-3.13,7.83-4.39,11.65-1.62,4.98-2.89,9.84-3.86,14.5-.22,1.07-.38,2.09-.57,3.13,1.48.86,2.97,1.76,4.48,2.71,2.55,1.62,5.13,3.41,7.71,5.29Z"/>
    <path class="st0" d="M69.3,84.59c-5.82-3.82-11.19-7.1-15.97-9.88l-.36.55-.75,1.13-.75,1.13-.37.57-.35.58c-.47.78-.94,1.55-1.41,2.33-.24.38-.46.79-.68,1.19l-.66,1.2-.66,1.2c-.22.4-.41.81-.62,1.22-.41.82-.82,1.63-1.22,2.44-.38.82-.75,1.65-1.12,2.46-.39.81-.72,1.64-1.05,2.46-.17.41-.34.82-.51,1.23l-.25.61-.23.62c-.3.83-.61,1.65-.91,2.47-.3.82-.55,1.65-.82,2.47l-.4,1.23c-.12.39-.23.78-.34,1.17,4.37,1.68,8.96,3.82,13.7,6.4,4.6-9.69,10.14-17.9,15.75-24.78Z"/>
    <path class="st0" d="M37.95,110.36c-.17.81-.37,1.61-.51,2.42-.15.8-.29,1.61-.44,2.4-.53,3.19-.97,6.33-1.23,9.4-.03.38-.07.77-.11,1.15-.03.38-.05.76-.08,1.14-.05.76-.1,1.52-.15,2.26-.03.75-.06,1.5-.09,2.24-.01.37-.03.74-.04,1.1,0,.37-.01.73-.02,1.1,0,.73-.02,1.45-.03,2.17,0,.72.01,1.43.02,2.14,0,.35,0,.71,0,1.06,0,.17,0,.35.02.52,2.58,1.07,5.28,2.36,8.07,3.83.01-.08.02-.16.03-.24.73-5.25,1.89-10.69,3.47-16.18,1.34-4.54,2.97-9.11,4.91-13.6-3.81-2.44-7.49-4.58-10.99-6.38-.61-.31-1.2-.6-1.8-.89-.37,1.47-.76,2.92-1.05,4.37Z"/>
    <path class="st0" d="M74.85,201.11c.37.02.75.04,1.13.05.38.02.76.02,1.15.02.77.01,1.55.03,2.34.04.79,0,1.59-.02,2.4-.03.81,0,1.63-.03,2.45-.07.83-.04,1.66-.05,2.5-.11,1.68-.13,3.39-.21,5.11-.41,1.31-.12,2.63-.29,3.96-.46-1.27-2.23-2.7-4.51-4.28-6.83-.85.24-1.68.5-2.52.72-.84.21-1.68.41-2.51.62-.41.1-.82.2-1.23.29-.41.09-.82.17-1.22.25-.81.16-1.61.32-2.4.47-.79.14-1.57.25-2.34.37-1.54.26-3.05.39-4.5.55-2.29.19-4.42.28-6.46.29.66,1.34,1.19,2.63,1.65,3.9.84.07,1.67.15,2.55.21.73.05,1.47.07,2.21.11Z"/>
    <path class="st0" d="M73.84,192.33c.38-.08.75-.17,1.13-.26.76-.18,1.53-.35,2.31-.54,1.55-.41,3.15-.8,4.76-1.3.4-.12.81-.24,1.22-.36l.61-.18.61-.2c.82-.26,1.64-.53,2.47-.8.35-.11.69-.23,1.04-.36,0-.01-.02-.03-.03-.04-3.46-4.51-7.47-9.03-11.78-13.43-2.89,2.08-5.6,3.98-8.1,5.69-2.78,1.9-5.29,3.57-7.5,5.01,2.4,2.64,4.41,5.33,6.02,7.99,1.95-.26,3.97-.57,6.12-1.02.37-.07.74-.14,1.12-.22Z"/>
    <path class="st0" d="M99.51,207.28c-.31-.7-.64-1.42-.99-2.14-5.65.68-11.03.83-15.94.58-4.17-.24-7.96-.75-11.41-1.4.01.05.03.1.04.15,1.48.91,2.99,1.8,4.52,2.63,3.15.63,6.54,1.21,10.14,1.68,4.64.61,9.61.98,14.7,1.07-.33-.84-.68-1.69-1.07-2.57Z"/>
    <path class="st0" d="M63.79,196.78c-1.34-.08-2.62-.19-3.78-.33,1.59,1.32,3.24,2.57,4.91,3.79.39.05.81.09,1.21.14-.68-1.14-1.4-2.29-2.22-3.44-.04-.05-.08-.11-.12-.16Z"/>
    <path class="st0" d="M102.26,214.67c-3.94-.08-7.71-.39-11.25-.89,3.87,1.32,7.85,2.44,11.92,3.27-.15-.6-.32-1.21-.51-1.87-.05-.17-.11-.35-.16-.52Z"/>
    <path class="st0" d="M137.09,207.83c-2.5,1.11-5.16,2.17-8.02,3.08-3.36,1.06-6.93,1.94-10.63,2.58-3.7.65-7.52,1.02-11.36,1.17-1.16.04-2.28.01-3.42,0,.07.42.16.88.21,1.28.06.47.1.87.15,1.3,6.11,1.19,12.43,1.83,18.89,1.83,5.97,0,11.81-.56,17.49-1.57-.32-1.17-.66-2.36-1.06-3.58-.64-1.97-1.41-4.02-2.25-6.1Z"/>
    <path class="st0" d="M31.98,145.38c-.18-1.53-.33-3.08-.46-4.67-2.04-1.03-3.95-1.89-5.71-2.56,1.97,10.91,5.74,21.19,11,30.53-.61-2.09-1.21-4.3-1.79-6.65-1.22-5-2.29-10.59-3.03-16.65Z"/>
    <path class="st0" d="M42.67,176.97c-.38-.24-.74-.44-1.11-.67.78,1.14,1.58,2.26,2.41,3.36-.12-.66-.23-1.36-.34-2.06-.32-.21-.64-.44-.95-.64Z"/>
    <path class="st0" d="M42.79,171.19c-.68-6.83-.85-14.97.08-23.8-2.6-1.71-5.09-3.23-7.45-4.57.26,5.19.75,10.04,1.39,14.48.68,4.66,1.49,8.88,2.32,12.62.09.42.19.81.29,1.22,1.17.41,2.35.88,3.53,1.42-.05-.46-.11-.9-.15-1.36Z"/>
    <path class="st0" d="M61.77,194.11c-1.6-2-3.38-3.98-5.27-5.88-1.27.81-2.37,1.51-3.28,2.08,1.4,1.39,2.86,2.73,4.34,4.04,1-.01,2.07-.09,3.22-.15.31-.03.67-.06.99-.09Z"/>
    <path class="st0" d="M51.66,174.58c1-3.04,2.19-6.36,3.59-9.87.34-.88.73-1.76,1.1-2.67.37-.9.76-1.82,1.17-2.73.13-.3.27-.6.4-.91-2.47-1.99-4.92-3.89-7.29-5.63-1.2-.88-2.37-1.7-3.54-2.52-.3,1.95-.56,3.87-.76,5.73-.24,2.1-.39,4.14-.53,6.1-.11,1.96-.21,3.85-.24,5.67-.05,2.16-.04,4.2,0,6.13,1.78.95,3.57,2,5.31,3.2.25-.81.51-1.64.78-2.5Z"/>
    <path class="st0" d="M53.94,185.74c-.98-.9-1.96-1.76-2.93-2.59-.53,1.21-1,2.33-1.41,3.35,1.03,1.14,2.09,2.26,3.17,3.35.77-.7,1.7-1.55,2.79-2.53-.54-.53-1.07-1.06-1.63-1.58Z"/>
    <path class="st0" d="M46.03,182.29c.84,1.05,1.72,2.07,2.6,3.08.19-.81.39-1.66.62-2.58.07-.28.16-.59.24-.88-1.24-1.01-2.48-1.96-3.7-2.83.07,1.13.15,2.2.24,3.21Z"/>
    <path class="st1" d="M97.83,97.32c-.97-.81-1.9-1.55-2.76-2.21-.81,2.37-1.39,4.66-1.76,6.89l2.18,1.74c-.84.77-1.56,1.42-2,1.79,0,0-.02,0-.02-.02-.02.04-.04.05-.07.09,0,0-.02.02-.04.04-.16.16-.32.33-.47.49-.02.47-.04.93-.04,1.41,0,2.06.19,4.08.58,6.01.46-.6.91-1.2,1.37-1.78.51-.63,1.16-1.37,1.9-2.18-.16-1.18-.23-2.37-.23-3.57,0-2.9.42-5.8,1.35-8.7ZM123.4,135.05c-2.43-.32-4.71-.86-6.84-1.62-1.18,1.02-2.37,2.07-3.59,3.15,2.07.88,4.29,1.6,6.61,2.14l3.97-3.66c-.05,0-.11-.02-.16-.02ZM142.84,217.03c-.58-3.3-1.42-6.87-2.64-10.63,2.14-1.09,4.11-2.2,5.89-3.3,4.52-2.76,7.73-5.45,9.63-7.12,1.88-1.7,2.51-2.39,1.56-1.65-.49.35-1.16.84-2.06,1.42-.9.54-1.97,1.23-3.27,1.95-2.58,1.46-5.98,3.18-10.19,4.9-.79.33-1.65.65-2.51.97-1.14-3.23-2.53-6.59-4.15-10.07.72-.39,1.48-.77,2.18-1.12,1.23-.72,2.41-1.39,3.55-2.04.54-.33,1.09-.65,1.62-.97s1.02-.65,1.51-.95c.97-.63,1.86-1.21,2.71-1.74.4-.28.81-.53,1.18-.79.37-.26.72-.53,1.05-.76.65-.47,1.23-.91,1.74-1.28,2-1.48,2.69-2.07,1.67-1.48-1.02.6-2.88,1.55-5.52,2.79-1.35.6-2.88,1.27-4.59,2.02-.86.39-1.78.72-2.74,1.11-.95.39-1.95.79-3.01,1.23-.88.33-1.83.69-2.78,1.04-1.55-3.09-3.27-6.26-5.19-9.46-1.56.93-3.2,1.62-4.87,2.07,2.04,3.01,3.9,5.99,5.66,8.96-7.36,2.55-16.33,5.19-26.82,7.05-1.09.18-2.14.33-3.22.49-1.04-2.43-2.3-4.97-3.76-7.61.44-.14.9-.3,1.34-.46.23-.07.46-.16.67-.23.23-.09.44-.18.65-.25.44-.18.9-.35,1.34-.53.88-.35,1.78-.69,2.67-1.07.88-.39,1.78-.79,2.67-1.18,1.44-.65,2.87-1.34,4.25-2.06.56-.28,1.12-.56,1.67-.86,1.16-.62,2.3-1.25,3.43-1.9-2.65-.49-5.31-1.48-7.61-2.97-1.42.69-2.87,1.37-4.36,2.04-.86.39-1.72.77-2.57,1.16-.84.39-1.72.72-2.57,1.09-1.6.7-3.2,1.3-4.78,1.92-.54-.83-1.09-1.65-1.67-2.48-2.87-4.11-6.26-8.33-10.16-12.55,2.83-2.09,5.8-4.36,8.86-6.77l.02.02,12.29-9.91,3.44,4.2c1.55-1.25,3.34-2.04,5.24-2.3.46-.09.9-.16,1.35-.21l-4.73-6.56c1.93-1.72,3.81-3.46,5.68-5.2l-.07.19,3.85-3.53c-2.27-.67-4.41-1.48-6.45-2.44-2.67,2.36-5.47,4.8-8.37,7.35-.07-.07-.12-.14-.19-.19-6.19-6.36-12.66-12.23-19.19-17.54,2.78-3.97,5.59-7.84,8.38-11.55-.69-2.32-1.12-4.73-1.28-7.24-3.9,4.36-7.96,9.33-12,14.9-2.69-2.07-5.4-4.04-8.09-5.91-3.55-2.46-7.1-4.73-10.58-6.8,4.18-8.96,9.37-17.38,14.89-24.85,5.27,3.59,10.83,7.58,16.56,12.02.4-1.83.91-3.71,1.58-5.64l.07-.18c.09-.21.21-.46.37-.74-.67-.47-1.27-.86-1.78-1.14-.26-.19-.53-.39-.81-.58-1-.7-1.99-1.41-2.99-2.11-1-.69-2-1.35-3.01-2.02-.51-.33-1-.67-1.49-1-.51-.32-1.02-.63-1.51-.93-1-.63-2-1.27-2.99-1.88-.18-.11-.35-.21-.54-.32,2.72-3.43,5.5-6.63,8.23-9.56.81-.86,1.58-1.74,2.39-2.55.79-.81,1.58-1.62,2.34-2.39.79-.79,1.56-1.53,2.32-2.27.37-.37.74-.72,1.11-1.09.37-.35.74-.69,1.11-1.04,1.93-1.81,3.74-3.45,5.45-4.92.23.12.47.26.69.39,1.05.58,2.07,1.14,3.06,1.69,1,.56,1.93,1.14,2.87,1.69,1.85,1.09,3.59,2.09,5.17,2.99,6.19,3.83,10,5.89,8.65,4.87-.67-.51-1.74-1.55-3.25-3.01-.76-.72-1.62-1.55-2.58-2.5-.49-.46-1-.97-1.56-1.44-.56-.49-1.14-1-1.76-1.55-1.25-1.05-2.6-2.2-4.08-3.41-.37-.3-.74-.62-1.12-.9-.4-.3-.81-.6-1.21-.9-.42-.32-.88-.65-1.34-.97,1.92-1.62,3.59-2.97,4.87-4.03,3.06-2.44,4.13-3.39,2.58-2.34-.76.53-1.85,1.23-3.23,2.09-.69.42-1.44.93-2.28,1.46-.83.54-1.74,1.11-2.69,1.76-.12.07-.26.16-.37.25-.04-.04-.07-.05-.11-.07-.88-.63-1.79-1.28-2.74-1.93-.97-.63-1.99-1.23-3.02-1.86-1.04-.63-2.09-1.27-3.2-1.92-.54-.33-1.12-.62-1.7-.91-.58-.3-1.18-.6-1.78-.9-1.2-.6-2.37-1.2-3.57-1.76-.69-.28-1.35-.56-2.02-.84,1.7-1.14,3.43-2.27,5.11-3.3,5.22-3.2,10.26-5.92,14.94-8.17.6-.3,1.18-.56,1.76-.84,2.18.86,4.31,1.76,6.31,2.65.51.21,1,.44,1.49.65.47.23.95.46,1.42.67.93.46,1.86.86,2.74,1.32.88.42,1.74.84,2.55,1.25.83.42,1.6.83,2.34,1.21,2.95,1.55,5.29,2.83,6.73,3.62,1.44.77,2.02.98,1.39.53-.63-.44-1.63-1.37-3.08-2.69-.72-.63-1.56-1.35-2.5-2.16-.95-.81-2.04-1.65-3.22-2.6-2.41-1.79-5.29-3.87-8.81-5.85-.63-.35-1.3-.7-1.99-1.07,6.13-2.71,11.23-4.61,14.68-5.91,4.76-1.72,6.49-2.43,4.17-1.72-1.16.37-2.76.81-4.8,1.37-1.04.25-2.14.62-3.37.97-1.23.35-2.55.76-3.99,1.18-2.64.83-5.61,1.81-8.88,2.99-2.48-1.2-5.15-2.36-8.07-3.37-.79-.28-1.6-.53-2.39-.77,7.75-1.95,15.85-3.01,24.2-3.01,27.12,0,51.66,10.88,69.52,28.54-18.88-20.09-45.65-32.69-75.42-32.69-57.14,0-103.44,46.26-103.44,103.32s46.3,103.26,103.44,103.26c37.03,0,69.41-19.46,87.69-48.63-14.17,20.9-36.19,36.05-61.85,41.29ZM103.38,204.45c7.43-1.3,14.62-3.48,21-6.03.79-.32,1.58-.65,2.37-.95.77-.33,1.51-.69,2.27-1.02.72-.33,1.44-.67,2.14-.98.63,1.14,1.25,2.3,1.85,3.45,1.02,1.99,1.92,3.94,2.78,5.87-7.72,2.55-17.42,4.64-28.88,5.03-1.41.05-2.81.05-4.22.05-.39-1.6-.91-3.3-1.51-5.1.72-.11,1.44-.19,2.2-.32ZM78.83,133.75c3.99,3.46,8.03,7.19,12.09,11.13l-.04.02,6.1,5.77-8.86,7.84v-.07c-3.87,3.39-7.59,6.68-11.09,9.77-1.07-1.07-2.18-2.14-3.32-3.22-3.06-2.87-6.22-5.5-9.4-8,.33-.58.65-1.12.98-1.7,3.87-6.68,8.4-13.9,13.53-21.53ZM73.05,171.75c-3.25,2.88-6.29,5.57-9,7.98-1.78,1.58-3.41,3.04-4.89,4.36-.62-.63-1.23-1.28-1.92-1.92-1.35-1.25-2.78-2.41-4.22-3.5.77-1.69,1.62-3.48,2.57-5.4,1.74-3.55,3.83-7.51,6.17-11.74,2.74,2.3,5.5,4.73,8.3,7.33,1.02.95,1.99,1.92,2.99,2.88ZM67.32,124.28c2.2,1.7,4.43,3.5,6.68,5.36-.12.19-.26.35-.39.54-1.28,1.97-2.6,3.9-3.81,5.91-.62.98-1.21,1.97-1.81,2.95-.58.98-1.16,1.99-1.72,2.97-.28.49-.56.98-.84,1.46-.28.51-.54,1-.81,1.49-.53.98-1.07,1.95-1.58,2.92-.51.98-1,1.95-1.49,2.92-.25.49-.49.97-.72,1.44-.23.49-.47.97-.7,1.44-.02.04-.02.07-.04.11-2.58-1.88-5.17-3.67-7.72-5.29-1.51-.95-3.01-1.85-4.48-2.71.19-1.05.35-2.07.58-3.13.97-4.68,2.23-9.53,3.85-14.5,1.27-3.83,2.71-7.72,4.39-11.65,3.44,2.37,7,4.96,10.62,7.77ZM35.26,135.74c0-.72.02-1.44.02-2.16.02-.37.02-.74.04-1.11,0-.37.02-.74.04-1.11.04-.74.05-1.48.09-2.23.05-.74.11-1.49.16-2.27.02-.37.05-.76.07-1.14.04-.37.07-.76.11-1.14.26-3.08.7-6.2,1.23-9.4.16-.79.3-1.6.44-2.39.14-.81.35-1.62.51-2.43.3-1.46.69-2.9,1.05-4.36.6.28,1.18.56,1.79.88,3.5,1.79,7.17,3.95,10.99,6.38-1.93,4.5-3.57,9.07-4.9,13.6-1.58,5.5-2.74,10.93-3.48,16.19-.02.09-.02.16-.04.25-2.78-1.48-5.48-2.76-8.07-3.83,0-.18,0-.35-.02-.53v-1.05c-.02-.7-.02-1.42-.02-2.14ZM53.55,109.38c-4.75-2.58-9.33-4.73-13.71-6.42.11-.39.23-.77.35-1.16l.39-1.23c.28-.83.53-1.65.83-2.48.3-.81.62-1.63.91-2.46l.23-.62.25-.62c.18-.4.33-.83.51-1.23.33-.83.67-1.65,1.05-2.46.37-.83.74-1.63,1.11-2.46.42-.81.83-1.62,1.23-2.44.21-.4.4-.83.62-1.21l.67-1.2.67-1.21c.21-.39.42-.79.67-1.18.47-.77.95-1.56,1.42-2.34l.35-.58.37-.56.76-1.14.76-1.12.35-.54c4.8,2.78,10.16,6.05,15.98,9.88-5.61,6.87-11.16,15.08-15.75,24.78ZM87.34,52.39c.58.28,1.16.58,1.74.86.56.28,1.14.54,1.7.86,1.12.62,2.25,1.21,3.36,1.81.56.28,1.11.58,1.67.86.26.16.54.3.83.44.26.14.53.3.81.46.23.12.46.26.7.39-2.95,2.07-6.22,4.5-9.81,7.45-2.78,2.32-5.73,4.89-8.75,7.86-2.21,2.16-4.5,4.5-6.78,7.07-.4-.21-.81-.44-1.2-.67-.98-.54-1.95-1.07-2.92-1.6-.95-.51-1.92-1-2.85-1.49-.47-.25-.95-.49-1.41-.72-.47-.23-.93-.46-1.41-.7-.91-.44-1.83-.9-2.72-1.32-1.67-.79-3.27-1.51-4.83-2.2l.25-.35.42-.53.84-1.05.83-1.05c.28-.35.54-.72.84-1.05,4.59-5.48,9.63-10.41,14.83-14.73,1.92-1.6,3.87-3.08,5.8-4.52.47.23.93.44,1.39.67,1.07.51,2.18,1.04,3.29,1.55,1.11.56,2.23,1.14,3.37,1.72ZM90.36,27.47c2.9.79,5.96,1.72,9.14,2.83,1.12.4,2.25.81,3.36,1.21-2.02.83-4.15,1.72-6.35,2.72-.53.25-1.07.47-1.62.72-.53.26-1.07.53-1.62.81-1.09.53-2.21,1.09-3.34,1.65-1.12.58-2.27,1.21-3.43,1.83-.58.32-1.16.63-1.76.97-.56.33-1.16.69-1.74,1.04s-1.18.7-1.78,1.05c-.53.32-1.05.63-1.56.97-.23-.07-.46-.16-.69-.23-1.2-.4-2.36-.79-3.5-1.16-3.29-.91-6.4-1.6-9.25-2.04,7.36-5.17,15.47-9.35,24.12-12.37ZM63.11,42.11c.25.09.47.14.72.23,1.56.44,3.23,1.11,5.03,1.72.21.09.44.16.67.25s.46.19.69.28c.46.18.91.37,1.39.56.47.18.95.37,1.42.56.25.11.49.19.74.3.25.09.49.21.74.32.11.05.23.11.33.16-.88.63-1.76,1.25-2.65,1.9-.63.42-1.21.91-1.83,1.39-.6.47-1.21.95-1.83,1.44-4.87,3.92-9.76,8.47-14.31,13.82-.54.69-1.11,1.35-1.67,2.06-.28.33-.56.69-.84,1.02-.28.37-.54.72-.83,1.09-.11.14-.21.3-.33.46-.12-.05-.26-.12-.39-.18-3.59-1.44-6.77-2.6-9.47-3.5,6.1-9.14,13.69-17.21,22.43-23.87ZM39.83,67.31c2.53,1.28,5.52,2.88,8.95,4.78-.35.51-.7,1.02-1.07,1.53-1.05,1.51-2,3.13-3.01,4.73-.49.81-.93,1.65-1.39,2.48-.25.42-.47.84-.7,1.27-.25.4-.44.84-.67,1.28-.42.86-.86,1.72-1.28,2.58-.4.88-.79,1.76-1.18,2.64-.42.86-.76,1.76-1.11,2.64l-.54,1.34-.26.65-.23.69c-.32.9-.63,1.79-.95,2.67-.3.9-.56,1.81-.84,2.71-.14.44-.28.9-.42,1.34-.05.21-.11.4-.16.62-2.99-.93-5.8-1.58-8.44-1.97,2.55-11.53,7.1-22.3,13.31-31.95ZM24.2,120.52c0-6.64.67-13.13,1.93-19.42,1.07.26,2.2.58,3.36.95,1.53.51,3.13,1.12,4.78,1.79-.07.28-.16.56-.21.84-.21.9-.42,1.79-.62,2.69-.21.9-.35,1.81-.53,2.71-.09.44-.18.88-.26,1.34l-.21,1.34c-.12.9-.28,1.79-.39,2.67-.47,3.55-.74,7.07-.9,10.49-.12,3.43-.09,6.78.05,10.04.02.67.09,1.32.12,1.99-2.07-.74-4.04-1.3-5.87-1.7-.83-5.11-1.27-10.35-1.27-15.71ZM25.8,138.15c1.78.67,3.69,1.53,5.73,2.57.12,1.58.28,3.15.46,4.66.74,6.06,1.79,11.65,3.02,16.66.58,2.34,1.18,4.55,1.79,6.64-5.26-9.35-9.02-19.63-11-30.53ZM39.12,169.91c-.83-3.74-1.63-7.96-2.32-12.62-.63-4.43-1.12-9.28-1.39-14.47,2.37,1.34,4.85,2.85,7.45,4.57-.91,8.82-.76,16.96-.07,23.8.04.46.09.9.14,1.35-1.18-.53-2.36-1-3.53-1.41-.09-.42-.18-.81-.28-1.23ZM41.55,176.31c.39.23.74.42,1.12.67.32.19.63.42.95.63.12.7.23,1.41.35,2.06-.84-1.09-1.63-2.21-2.43-3.36ZM45.57,167.75c.04-1.81.12-3.71.25-5.66.14-1.97.28-4.01.53-6.1.19-1.86.46-3.78.76-5.73,1.16.81,2.34,1.63,3.53,2.51,2.37,1.74,4.82,3.66,7.29,5.64-.14.3-.28.6-.4.9-.42.91-.81,1.83-1.18,2.74-.37.9-.76,1.78-1.09,2.65-1.41,3.52-2.58,6.84-3.6,9.88-.26.86-.53,1.69-.77,2.5-1.74-1.21-3.53-2.25-5.31-3.2-.05-1.93-.05-3.97,0-6.13ZM49.26,182.79c-.25.93-.44,1.78-.63,2.58-.9-1.02-1.76-2.04-2.6-3.09-.09-1-.18-2.07-.25-3.2,1.23.88,2.46,1.83,3.71,2.83-.09.3-.16.6-.23.88ZM49.6,186.5c.42-1.02.88-2.14,1.41-3.36.98.83,1.97,1.69,2.94,2.6.56.51,1.09,1.04,1.63,1.56-1.09.98-2.02,1.83-2.79,2.53-1.09-1.09-2.14-2.2-3.18-3.34ZM53.22,190.3c.91-.56,2-1.27,3.29-2.07,1.88,1.92,3.66,3.88,5.27,5.89-.33.02-.69.05-1,.09-1.14.05-2.21.12-3.22.14-1.48-1.3-2.94-2.64-4.34-4.04ZM64.93,200.25c-1.69-1.21-3.32-2.48-4.92-3.8,1.16.14,2.44.25,3.78.33.04.05.09.11.12.16.83,1.14,1.55,2.3,2.21,3.44-.39-.05-.81-.09-1.2-.14ZM60.58,185.59c2.21-1.44,4.73-3.11,7.51-5.01,2.5-1.7,5.2-3.62,8.1-5.69,4.31,4.39,8.31,8.91,11.78,13.43,0,.02.02.02.04.04-.35.12-.7.25-1.05.35-.83.28-1.65.54-2.46.81l-.62.19-.62.18c-.4.12-.81.25-1.21.37-1.62.49-3.22.88-4.76,1.28-.77.19-1.55.37-2.3.54-.39.09-.76.18-1.14.26-.37.07-.74.14-1.11.21-2.16.46-4.18.76-6.12,1.02-1.62-2.65-3.62-5.34-6.03-7.98ZM68.44,196.89c2.02-.02,4.15-.11,6.45-.3,1.44-.16,2.95-.28,4.5-.54.77-.12,1.55-.23,2.34-.37.79-.16,1.6-.32,2.41-.47.4-.09.81-.16,1.23-.25.4-.11.81-.19,1.21-.3.83-.19,1.67-.4,2.51-.62.83-.23,1.67-.47,2.51-.72,1.58,2.32,3.02,4.61,4.29,6.82-1.34.18-2.65.35-3.97.47-1.72.19-3.43.26-5.1.4-.84.05-1.67.07-2.5.11-.83.04-1.65.07-2.46.07s-1.6.02-2.39.02-1.58-.02-2.36-.04c-.39,0-.76,0-1.14-.02-.39-.02-.76-.04-1.12-.05-.76-.04-1.49-.05-2.21-.11-.88-.05-1.7-.14-2.57-.21-.46-1.27-.98-2.57-1.63-3.9ZM75.73,207.1c-1.53-.84-3.04-1.72-4.52-2.64-.02-.05-.04-.09-.04-.14,3.44.65,7.24,1.16,11.41,1.39,4.9.26,10.28.11,15.94-.58.33.72.67,1.44.98,2.14.39.88.74,1.72,1.05,2.57-5.08-.09-10.05-.46-14.69-1.07-3.6-.46-6.98-1.04-10.14-1.67ZM91.01,213.78c3.55.49,7.31.81,11.25.88.05.18.12.35.16.53.19.65.37,1.27.51,1.86-4.06-.84-8.03-1.95-11.92-3.27ZM122.91,219.07c-6.45,0-12.78-.63-18.88-1.83-.05-.42-.09-.83-.16-1.3-.05-.4-.14-.86-.21-1.28,1.14.02,2.27.04,3.43,0,3.83-.16,7.65-.53,11.35-1.18,3.69-.63,7.26-1.51,10.62-2.58,2.87-.9,5.52-1.95,8.03-3.08.84,2.09,1.6,4.13,2.25,6.1.39,1.23.74,2.41,1.05,3.59-5.68,1-11.51,1.56-17.49,1.56ZM149.43,154.27c-.62.53-1.56,1.27-2.87,2.21-.67.51-1.44,1.07-2.3,1.69-.84.56-1.76,1.2-2.74,1.86-2,1.37-4.34,2.95-7,4.64-.49.32-1,.65-1.51.98-.51.33-1.05.65-1.6.98-.77.49-1.55.97-2.36,1.48-3.08,3.2-6.77,5.87-10.67,7.15-.83.23-1.62.37-2.39.42h-.02c-1.76.97-3.57,1.93-5.48,2.92,2.43,1.12,5.17,1.67,7.75,1.67.46,0,.91-.02,1.35-.05h.02c.46-.3.91-.58,1.35-.88.14.21.3.42.44.63,1.83-.37,3.55-1.05,5.17-1.99-.05-.09-.11-.16-.16-.25-.3-.49-.65-1-.97-1.49,2.57-1.86,5.03-3.71,7.22-5.55,1.42-1.14,2.76-2.28,4.01-3.41.83-.72,1.62-1.44,2.37-2.13.12-.11.23-.19.33-.3.51-.44.98-.9,1.44-1.34.46-.46.9-.88,1.34-1.3.76-.76,1.49-1.48,2.16-2.14.09-.07.16-.14.23-.21,1.27-1.3,2.32-2.44,3.15-3.36.12-.12.23-.25.33-.37,1.74-1.93,2.32-2.71,1.39-1.88ZM114.07,170.26c.49.6.97,1.2,1.44,1.79.62-.02,1.27-.12,1.9-.3,1.21-.4,2.48-1.02,3.74-1.81-.25-.35-.51-.7-.77-1.05-2.39.09-4.71.25-7.03.47h-.02c.12.14.25.3.37.46.12.14.26.28.37.44ZM114.1,160.17c-1.11.11-2.18.25-3.27.44-1.32.19-2.46.72-3.45,1.49l3.15,3.87h.02c.18-.02.37-.05.58-.07,1.56-.18,3.81-.39,6.71-.54l-3.74-5.19ZM136.73,115.65c-.97.9-1.92,1.79-2.88,2.67l-6.52,5.71c-6.5-6.26-15.84-14.96-23.75-21.85.9-1,1.67-1.92,2.27-2.71,0,0,0-.02-.02-.04,4.01-4.31,8.01-8.63,12.27-12.73.83-.77,1.67-1.53,2.57-2.37-.77-.3-1.12.21-1.51.49-5.98,4.04-11.64,8.51-17.1,13.18-.25.18-.51.37-.81.62-.74,2.39-1.11,4.83-1.11,7.38,0,.47.02.97.05,1.44l24.12,19.23-4.5,3.92c1.28.35,2.65.62,4.08.81.6.09,1.32.12,2.18.12.28,0,.58,0,.9-.02l1.44-1.58.39.32c.39.35.77.72,1.16,1.07,1.34-.12,2.69-.3,3.95-.49-1-1.21-2.02-2.43-3.04-3.62l3.95-4.36v-.07c.18-.16.39-.39.67-.7.46-.53.9-1.04,1.34-1.56-.02-1.53-.04-3.13-.09-4.87ZM149.7,102.84c-.84.9-1.6,1.74-2.37,2.58-.25.26-.49.51-.76.76-2.04,2.09-4.13,4.13-6.26,6.15.04,1.35.07,2.62.09,3.85,2.16-2.67,4.25-5.38,6.24-8.17.88-1.2,1.74-2.41,2.57-3.64.26-.39.79-.74.49-1.53ZM143.51,143.65c-2.21-3.27-4.55-6.43-7-9.54-.95.18-1.99.35-3.06.49,1.6,1.49,3.16,2.99,4.73,4.52.35.35.72.72,1.07,1.07.81.79,1.6,1.6,2.37,2.41.77.83,1.53,1.67,2.37,2.57.3-.77-.21-1.12-.49-1.51Z"/>
  </g>
  <path class="st3" d="M238.78,166.2c-18.31-2.88-65.93-5.48-94.44-6.12.09-.07.16-.14.23-.21,1.27-1.3,2.32-2.44,3.15-3.36-.39-.02-.77-.02-1.14-.04-.67.51-1.44,1.07-2.3,1.69-.84.56-1.76,1.2-2.74,1.86-.4,0-.81-.02-1.2-.02,3.18-7.42,4.99-15.43,5.45-21.18l.14-1.51,2.43-.76c21.16-7.87,36.61-30.25,37.95-54.29,1.07-18.16-7.84-43.24-28.88-42.2-18.46,1.67-17.68,26.33-17.68,39.64.09,14.22.4,24.54.58,32.62.04,1.35.07,2.62.09,3.85.05,2.46.09,4.69.09,6.78,0,2.57,0,4.97-.16,7.26l-.3,3.16c-.91.23-2.13.49-3.52.72-.95.18-1.99.35-3.06.49-3.46.49-7.29.79-9.9.47-.05,0-.11-.02-.16-.02-2.43-.32-4.71-.86-6.84-1.62-11.46-3.94-18.54-13.41-19.86-23.85-.16-1.18-.23-2.37-.23-3.57,0-2.9.42-5.8,1.35-8.7.18-.58.39-1.16.62-1.74.44-1.51,1.35-3.16.6-4.08-.6-.76-3.32,1.97-3.94,3.48-.02.04-.04.09-.04.12-.81,2.37-1.39,4.66-1.76,6.89-.23,1.39-.37,2.76-.42,4.13-.02.47-.04.93-.04,1.41,0,2.06.19,4.08.58,6.01,2,10.28,9.14,18.65,19.55,23.04,2.07.88,4.29,1.6,6.61,2.14.9.21,1.81.4,2.74.56,2.57.46,5.15.6,7.56.6,2.9,0,5.66-.25,8.3-.77.35.35.72.72,1.07,1.07-1.05,8.82-2.64,13.92-4.38,19.83-5.13,0-9.23-.16-12.85-.16-2.92,0-5.48.07-7.93.32-1.11.11-2.18.25-3.27.44-1.32.19-2.46.72-3.45,1.49-2.99,2.27-4.38,6.52-3.8,8.79.95,3.66,3.64,6.2,6.91,7.72,2.43,1.12,5.17,1.67,7.75,1.67.46,0,.91-.02,1.35-.05h.02c.62-.05,1.21-.14,1.79-.25,1.83-.37,3.55-1.05,5.17-1.99,4.01-2.28,7.38-6.15,10.11-10.7.83-.72,1.62-1.44,2.37-2.13,27.23.49,79.01,2.28,101.38,5.27l.6.77c.76-.16.91-.32,1.07-.91-.16-1.53-1.37-3.48-3.34-4.1ZM149.7,102.84c-.84.9-1.6,1.74-2.37,2.58-.25.26-.49.51-.76.76-.39-9.14-1.11-17.89-1.11-26.63v-5.13c0-11.65.77-28.44,12.11-29.65,16.94-2.13,23.29,18,23.29,32.82,0,1.67-.16,3.32-.3,4.85-2.43,21.32-15.87,40.99-34.03,48.69l-.3.14.3-5.13c.14-3.16.3-6.19.3-9.21s-.07-5.99-.19-8.91c.88-1.2,1.74-2.41,2.57-3.64.26-.39.79-.74.49-1.53ZM118.39,175.27c-.83.23-1.62.37-2.39.42h-.02c-4.41.35-8.01-1.93-8.77-5.4-.28-1.58-.44-3.73,3.32-4.32h.02c.18-.02.37-.05.58-.07,1.56-.18,3.81-.39,6.71-.54,2.14-.14,4.66-.21,7.51-.21,1.97,0,3.94,0,6.2.14-.77.97-1.6,1.92-2.5,2.83-3.08,3.2-6.77,5.87-10.67,7.15ZM405.07,125.99c-2.27,2.87-20.58,27.53-28.44,22.67-3.34-2.27-4.53-13.01-4.53-26.47,0-26.15,4.38-62.45,5.29-65.33,0-.74-1.21-1.95-2.72-2.71-1.51-.62-2.41-.46-2.57.46-1.97,6.35-6.2,38.86-6.2,63.96,0,3.01.07,5.91.19,8.65-6.35,5.27-16.49,10.46-22.94,9.19-2.72-.76-3.48-3.78-3.32-6.35.3-2.87,1.67-5.61,2.41-7.87,1.07-1.79-4.08-5.13-4.97-3.46l-2.58,3.46h-.14c-3.78-1.65-8.01-2.57-12.27-2.57-5.27,0-10.42,1.35-14.5,4.1-2.46,1.65-4.01,3.64-4.8,5.75-6.85,1.62-19.47,7.51-22.64,9.37l-.14.14v-.6c-.16-8.77-.91-15.87-1.07-16.19-.16-2.11-4.38-4.53-5.29-3.02-.46.62-1.05,1.81-2.11,3.18l-.3.16-.16-.16c-5.61-2.11-10.58-3.02-14.52-3.02-4.99,0-7.87,1.51-10.44,3.48-1.28,1.28-1.99,3.01-2.18,4.8-6.47,6.49-16.12,14.55-28.53,14.55-5.31,0-10.6-4.83-11.06-7.7,5.29,0,11.79-3.64,13.76-8.47,1.67-4.39-2.71-8.93-7.4-8.93-7.42.32-11.95,7.12-11.95,13.76,0,1.51.3,3.02.76,4.38,3.02,9.39,14.52,11.06,23.45,10.6,8.82-.53,17.12-5.92,22.01-12.88.25.47.53.91.84,1.39,1.05,1.51,2.57,3.02,4.39,4.38.3.3.76.62,1.35.91,1.51.76,3.02,1.07,4.38,1.07,1.99,0,3.64-.62,5.01-1.07,2.57-1.21,5.13-3.18,7.7-5.29,1.97-1.67,3.78-3.48,5.15-5.15l.46-.3v.76l.3,12.39.16.62-3.78,2.72c-15.29,11.34-27.38,25.56-29.65,37.19-.76,5.47,1.67,10.9,5.75,15.13,4.24,4.24,9.53,5.75,13.31,4.99,13.16-2.72,18-22.53,19.21-41.59l.46-14.06.14-1.83,4.39-3.02c4.85-2.9,11.86-6.77,17.59-9.23,0,1.6.39,3.11,1.12,4.5.77,1.41,1.9,2.69,3.41,3.83,1.65,1.05,3.48,1.51,5.45,1.51,8.01,0,18-7.72,22.23-11.51,1.95,5.47,5.75,8.33,10.74,9.54,6.35,1.51,16.79-3.32,20.56-7.1.23-.25.44-.47.67-.7.6,5.98,1.63,10.76,3.3,13.39,3.02,4.24,7.28,6.96,12.11,6.96,9.53,0,21.62-16.33,24.36-23.89.58-1.83.28-5.59-1.21-3.48ZM213.31,122.19c1.67,1.69-2.57,5.75-8.91,8.63-.16-3.78,5.73-11.79,8.91-8.63ZM267.32,127.04l-3.32,3.18c-2.41,2.11-5.15,3.94-7.26,4.97-1.21.62-2.27.91-3.32.91-.91,0-1.21-.16-1.21-.16l-1.05-.76c-.91-1.2-1.51-2.71-1.51-4.22s.44-2.88,1.67-4.24c1.65-1.67,4.68-2.87,8.75-2.87,2.27,0,4.85.44,7.72,1.2l1.05.3-1.51,1.67ZM257.2,199.03c-1.83.44-4.69-.76-6.96-2.88-1.83-2.11-4.08-5.91-3.18-10.6,1.67-10.12,11.34-22.97,24.2-33.57l3.18-2.71c.3,19.49-4.1,47.02-17.24,49.76ZM309.57,137.94c-2.27-.16-3.18-1.83-2.72-3.64,1.65-6.96,11.64-9.84,19.21-9.84,2.27,0,4.38.32,5.91.76-5.31,5.61-15.13,11.81-22.39,12.73Z"/>
  <path class="st3" d="M405.07,125.99c-2.27,2.87-20.58,27.53-28.44,22.67-3.34-2.27-4.53-13.01-4.53-26.47,0-26.15,4.38-62.45,5.29-65.33,0-.74-1.21-1.95-2.72-2.71-1.51-.62-2.41-.46-2.57.46-1.97,6.35-6.2,38.86-6.2,63.96,0,3.01.07,5.91.19,8.65-6.35,5.27-16.49,10.46-22.94,9.19-2.72-.76-3.48-3.78-3.32-6.35.3-2.87,1.67-5.61,2.41-7.87,1.07-1.79-4.08-5.13-4.97-3.46l-2.58,3.46h-.14c-3.78-1.65-8.01-2.57-12.27-2.57-5.27,0-10.42,1.35-14.5,4.1-2.46,1.65-4.01,3.64-4.8,5.75-6.85,1.62-19.47,7.51-22.64,9.37l-.14.14v-.6c-.16-8.77-.91-15.87-1.07-16.19-.16-2.11-4.38-4.53-5.29-3.02-.46.62-1.05,1.81-2.11,3.18l-.3.16-.16-.16c-5.61-2.11-10.58-3.02-14.52-3.02-4.99,0-7.87,1.51-10.44,3.48-1.28,1.28-1.99,3.01-2.18,4.8-6.47,6.49-16.12,14.55-28.53,14.55-5.31,0-10.6-4.83-11.06-7.7,5.29,0,11.79-3.64,13.76-8.47,1.67-4.39-2.71-8.93-7.4-8.93-7.42.32-11.95,7.12-11.95,13.76,0,1.51.3,3.02.76,4.38,3.02,9.39,14.52,11.06,23.45,10.6,8.82-.53,17.12-5.92,22.01-12.88.25.47.53.91.84,1.39,1.05,1.51,2.57,3.02,4.39,4.38.3.3.76.62,1.35.91,1.51.76,3.02,1.07,4.38,1.07,1.99,0,3.64-.62,5.01-1.07,2.57-1.21,5.13-3.18,7.7-5.29,1.97-1.67,3.78-3.48,5.15-5.15l.46-.3v.76l.3,12.39.16.62-3.78,2.72c-15.29,11.34-27.38,25.56-29.65,37.19-.76,5.47,1.67,10.9,5.75,15.13,4.24,4.24,9.53,5.75,13.31,4.99,13.16-2.72,18-22.53,19.21-41.59l.46-14.06.14-1.83,4.39-3.02c4.85-2.9,11.86-6.77,17.59-9.23,0,1.6.39,3.11,1.12,4.5.77,1.41,1.9,2.69,3.41,3.83,1.65,1.05,3.48,1.51,5.45,1.51,8.01,0,18-7.72,22.23-11.51,1.95,5.47,5.75,8.33,10.74,9.54,6.35,1.51,16.79-3.32,20.56-7.1.23-.25.44-.47.67-.7.6,5.98,1.63,10.76,3.3,13.39,3.02,4.24,7.28,6.96,12.11,6.96,9.53,0,21.62-16.33,24.36-23.89.58-1.83.28-5.59-1.21-3.48ZM213.31,122.19c1.67,1.69-2.57,5.75-8.91,8.63-.16-3.78,5.73-11.79,8.91-8.63ZM267.32,127.04l-3.32,3.18c-2.41,2.11-5.15,3.94-7.26,4.97-1.21.62-2.27.91-3.32.91-.91,0-1.21-.16-1.21-.16l-1.05-.76c-.91-1.2-1.51-2.71-1.51-4.22s.44-2.88,1.67-4.24c1.65-1.67,4.68-2.87,8.75-2.87,2.27,0,4.85.44,7.72,1.2l1.05.3-1.51,1.67ZM257.2,199.03c-1.83.44-4.69-.76-6.96-2.88-1.83-2.11-4.08-5.91-3.18-10.6,1.67-10.12,11.34-22.97,24.2-33.57l3.18-2.71c.3,19.49-4.1,47.02-17.24,49.76ZM309.57,137.94c-2.27-.16-3.18-1.83-2.72-3.64,1.65-6.96,11.64-9.84,19.21-9.84,2.27,0,4.38.32,5.91.76-5.31,5.61-15.13,11.81-22.39,12.73ZM238.78,166.2c-18.31-2.88-65.93-5.48-94.44-6.12-.97-.02-1.9-.04-2.81-.05-.4,0-.81-.02-1.2-.02,3.18-7.42,4.99-15.43,5.45-21.18l.14-1.51,2.43-.76c21.16-7.87,36.61-30.25,37.95-54.29,1.07-18.16-7.84-43.24-28.88-42.2-18.46,1.67-17.68,26.33-17.68,39.64.09,14.22.4,24.54.58,32.62.04,1.35.07,2.62.09,3.85.05,2.46.09,4.69.09,6.78,0,2.57,0,4.97-.16,7.26l-.3,3.16c-.91.23-2.13.49-3.52.72-.95.18-1.99.35-3.06.49-3.46.49-7.29.79-9.9.47-.05,0-.11-.02-.16-.02-2.43-.32-4.71-.86-6.84-1.62-11.46-3.94-18.54-13.41-19.86-23.85-.16-1.18-.23-2.37-.23-3.57,0-2.9.42-5.8,1.35-8.7.18-.58.39-1.16.62-1.74.44-1.51,1.35-3.16.6-4.08-.6-.76-3.32,1.97-3.94,3.48-.02.04-.04.09-.04.12-.81,2.37-1.39,4.66-1.76,6.89-.23,1.39-.37,2.76-.42,4.13-.02.47-.04.93-.04,1.41,0,2.06.19,4.08.58,6.01,2,10.28,9.14,18.65,19.55,23.04,2.07.88,4.29,1.6,6.61,2.14.9.21,1.81.4,2.74.56,2.57.46,5.15.6,7.56.6,2.9,0,5.66-.25,8.3-.77.26-.04.53-.09.77-.14l.46-.14c-.05.46-.11.91-.16,1.35-1.05,8.82-2.64,13.92-4.38,19.83-5.13,0-9.23-.16-12.85-.16-2.92,0-5.48.07-7.93.32-1.11.11-2.18.25-3.27.44-1.32.19-2.46.72-3.45,1.49-2.99,2.27-4.38,6.52-3.8,8.79.95,3.66,3.64,6.2,6.91,7.72,2.43,1.12,5.17,1.67,7.75,1.67.46,0,.91-.02,1.35-.05h.02c.62-.05,1.21-.14,1.79-.25,1.83-.37,3.55-1.05,5.17-1.99,4.01-2.28,7.38-6.15,10.11-10.7.44-.7.84-1.42,1.23-2.14.37,0,.76.02,1.14.02,27.23.49,79.01,2.28,101.38,5.27l.6.77c.76-.16.91-.32,1.07-.91-.16-1.53-1.37-3.48-3.34-4.1ZM146.57,106.18c-.39-9.14-1.11-17.89-1.11-26.63v-5.13c0-11.65.77-28.44,12.11-29.65,16.94-2.13,23.29,18,23.29,32.82,0,1.67-.16,3.32-.3,4.85-2.43,21.32-15.87,40.99-34.03,48.69l-.3.14.3-5.13c.14-3.16.3-6.19.3-9.21s-.07-5.99-.19-8.91c-.02-.62-.04-1.21-.07-1.83ZM118.39,175.27c-.83.23-1.62.37-2.39.42h-.02c-4.41.35-8.01-1.93-8.77-5.4-.28-1.58-.44-3.73,3.32-4.32h.02c.18-.02.37-.05.58-.07,1.56-.18,3.81-.39,6.71-.54,2.14-.14,4.66-.21,7.51-.21,1.97,0,3.94,0,6.2.14-.77.97-1.6,1.92-2.5,2.83-3.08,3.2-6.77,5.87-10.67,7.15Z"/>
  <g>
    <path class="st5" d="M284.66,167.24h10.64v2.63h-10.64v-2.63ZM288.61,168.43h2.74v13.33h-2.74v-13.33Z"/>
    <path class="st5" d="M298.54,167.24h2.73v14.51h-2.73v-14.51ZM299.53,167.24h8.73v2.63h-8.73v-2.63ZM299.53,173.23h7.64v2.64h-7.64v-2.64ZM299.53,179.12h8.73v2.63h-8.73v-2.63Z"/>
    <path class="st5" d="M321.94,167.24h3.6v14.51h-2.49v-11.27l.1.64-2.77,9.01h-2.42l-2.78-8.81.1-.84v11.27h-2.49v-14.51h3.6l2.77,9.78,2.77-9.78Z"/>
    <path class="st5" d="M330.78,167.24h2.73v14.51h-2.73v-14.51ZM332.03,173.49h4.64c.33,0,.61-.08.86-.23s.44-.36.58-.63c.14-.27.21-.59.21-.94s-.07-.68-.2-.95c-.14-.28-.33-.49-.58-.64-.25-.15-.54-.23-.87-.23h-4.64v-2.63h4.57c.9,0,1.7.18,2.39.55.69.37,1.22.89,1.6,1.56.38.67.57,1.45.57,2.33s-.19,1.66-.57,2.33c-.38.67-.91,1.19-1.6,1.55-.69.37-1.49.55-2.39.55h-4.57v-2.63Z"/>
    <path class="st5" d="M345.55,167.24h2.73v14.51h-2.73v-14.51ZM346.77,179.12h8.5v2.63h-8.5v-2.63Z"/>
    <path class="st5" d="M363.47,167.24h1.74l5.55,14.51h-2.94l-3.47-9.91-3.47,9.91h-2.94l5.55-14.51ZM360.58,176.79h7.64v2.64h-7.64v-2.64Z"/>
    <path class="st5" d="M372.2,167.24h10.64v2.63h-10.64v-2.63ZM376.15,168.43h2.74v13.33h-2.74v-13.33Z"/>
    <path class="st5" d="M386.08,167.24h2.73v14.51h-2.73v-14.51ZM387.07,167.24h8.73v2.63h-8.73v-2.63ZM387.07,173.23h7.64v2.64h-7.64v-2.64ZM387.07,179.12h8.73v2.63h-8.73v-2.63Z"/>
    <path class="st5" d="M402.87,181.69c-.66-.14-1.28-.34-1.87-.61-.58-.27-1.1-.59-1.56-.97l1.27-2.26c.56.46,1.2.81,1.94,1.06s1.48.37,2.26.37c.89,0,1.58-.15,2.08-.45.49-.3.74-.73.74-1.28h0c0-.4-.11-.7-.33-.93-.22-.23-.51-.39-.86-.5-.35-.11-.81-.2-1.36-.29-.02,0-.04,0-.06,0-.02,0-.04,0-.06-.01l-.22-.03c-.97-.15-1.78-.34-2.42-.57s-1.18-.63-1.63-1.21c-.45-.58-.67-1.39-.67-2.45h0c0-.95.21-1.75.63-2.42.42-.66,1.03-1.17,1.83-1.52s1.76-.52,2.9-.52c.52,0,1.05.06,1.59.18.54.12,1.07.29,1.59.52.52.23,1.01.5,1.48.82l-1.16,2.32c-.56-.39-1.14-.69-1.75-.9s-1.19-.32-1.75-.32c-.84,0-1.49.14-1.95.41s-.69.66-.69,1.16h0c0,.43.12.76.36,1s.54.42.89.53c.35.11.85.23,1.49.36.03,0,.05.01.08.02.03,0,.05,0,.08.01.04,0,.08.02.11.03.04,0,.08.02.11.02.92.18,1.69.4,2.3.65.62.26,1.13.67,1.54,1.24.41.57.62,1.35.62,2.33v.02c0,.92-.22,1.72-.65,2.38-.43.66-1.06,1.16-1.89,1.51-.83.35-1.82.52-2.99.52-.69,0-1.37-.07-2.03-.21Z"/>
  </g>
</svg>