<?xml version="1.0" encoding="UTF-8"?>
<svg xmlns="http://www.w3.org/2000/svg" width="125" height="49" fill="none">
  <mask id="a" maskUnits="userSpaceOnUse" x="79.105" y="21.084" width="46" height="27" fill="#000">
    <path fill="#fff" d="M79.105 21.084h46v27h-46z"></path>
    <path d="M84.976 34.801H85c.167-.047.31.119.357.262 0 .119-.143.285-.262.333-1.094.214-2.236.904-3.07 1.69.024.166.048.404.048.76 0 .834-.333 1.667-1.69 2.214l.025-.024c-.024 0-.024.024-.048.024a.84.84 0 0 1-.333.071.453.453 0 0 1-.31-.119c-.142-.142-.19-.357-.119-.666.167-.547.81-1.523 1.737-2.403 0-.024-.023-.096-.023-.12v-.118c-.096-.476-.167-.952-.167-1.404 0-1.095.666-2.308 2.927-3.141.119 0 .333.071.38.214.072.119-.047.31-.19.38-1.998.715-2.546 1.595-2.546 2.547 0 .238.072.642.167 1.142.952-.833 2.07-1.475 3.093-1.642Zm-4.735 4.569.071.071c.952-.404 1.166-1.047 1.142-1.784-.594.69-1.07 1.356-1.213 1.713Zm8.356-4.022h-.024a7.88 7.88 0 0 0-.57.667l-.263.357c-1.451 1.856-2.45 2.974-2.974 2.998v-.024c-.167 0-.357-.047-.428-.166-.096-.143-.143-.381-.143-.667 0-1.19.714-3.522 1.19-5.02.047-.167.214-.263.38-.191.167.047.262.214.19.38-.618 1.952-1.19 4.308-1.142 5.045.62-.38 1.642-1.665 2.285-2.474l.19-.262v.024c.857-1.119.976-1.261 1.19-1.261.143 0 .285.142.285.309a.33.33 0 0 1-.166.285Zm-2.451-3.212h.024c-.19.047-.571.071-.428-.167l.07-.142c.048-.096.12-.215.215-.238.19-.048.547 0 .571.142-.143.262-.262.357-.452.405Zm8.44 2.808c.072.143.025.333-.118.404a21.628 21.628 0 0 0-3.522 2.356c-1.166 3.784-2.998 8.257-5.378 9.352-.333.143-.618.214-.856.214-.429 0-.595-.214-.69-.38-.643-1.357 2.38-6.021 6.377-9.448.19-.642.38-1.356.523-1.927l-.071-.048c-.595.81-1.261 1.333-1.785 1.452-.31.071-.57-.024-.785-.238-.167-.19-.238-.452-.238-.785 0-.381.119-.905.357-1.547.571-1.547 1.713-2.19 2.427-1.927.143.047.405.19.595.642.166-.428.262-.761.357-1.07.047-.167.19-.286.357-.239.166.048.285.19.238.31-.024.238-.428 2.213-1.119 4.687 1.024-.833 2.047-1.499 2.927-1.95.167-.048.357-.025.405.142Zm-3.854-.405c.31-.928.119-1.475-.167-1.57l-.023-.024c-.405 0-1.143.452-1.571 1.618-.428 1.118-.333 1.618-.238 1.737.024.072.143.048.214 0 .38-.095 1.142-.69 1.785-1.76ZM85.33 46.51c1.928-.905 3.522-4.45 4.64-7.83l-.071-.07c-3.522 3.307-5.687 7.28-5.306 8.066.023.024.214.048.737-.166Zm14.732-11.684c.119.095.166.285.119.428-.524.88-2.07 3.38-3.094 3.38a.37.37 0 0 1-.285-.144c-.19-.261-.072-.69.5-2.355l.094-.31c.334-1 .857-2.45.762-2.95-1.237.142-3.689 4.212-5.045 7.09-.071.096-.166.167-.285.167h-.12a.31.31 0 0 1-.166-.38c.666-2.166 1.452-4.474 2.118-6.64.071-.142.238-.237.38-.19.167.048.262.214.215.357l-.88 2.784.094.024c1.143-1.88 2.594-3.831 3.713-3.831.19 0 .333.095.452.238v-.024c.38.5-.072 1.951-.738 3.831-.19.524-.452 1.285-.571 1.69.666-.524 1.642-1.856 2.332-3.046.071-.143.262-.19.405-.12Zm5.077-.024c.167.072.19.262.143.428-.214.405-1.809 3.308-3.355 3.308-.143 0-.334-.095-.429-.333-.024-.238 0-.88.167-1.5l-.072-.07c-.476.5-1.047.832-1.665.832-.429 0-.738-.214-.833-.619-.238-.832.642-2.355 1.523-2.974.285-.166.642-.285.904-.285.309 0 .619.095.976.38l.19-.452c.024-.071.024-.095.024-.119a.86.86 0 0 1 .143-.19h-.024c.095-.048.214-.095.262-.048.285.167.214.357.19.452l-.214.595c-.357 1.047-1.023 3.022-1.023 3.736.951-.262 2.117-1.951 2.688-2.998.072-.167.262-.19.405-.143Zm-5.211 2.07c.88 0 1.713-1.142 2.332-2.355-.286-.19-.524-.31-.762-.31-.143 0-.381.072-.571.19-.761.5-1.333 1.785-1.214 2.332.024.096.048.143.215.143Zm12.181-10.327-4.617 1.285c-2.213 7.067-3.998 13.611-3.974 15.039.976-.571 3.046-4.117 3.95-5.664.619-1.094 1.119-1.927 1.404-2.308v.024c.095-.119.31-.143.452-.047h-.023c.095.095.19.237.142.285-.285.38-.856 1.333-1.451 2.356-2.38 4.069-3.641 5.972-4.593 5.972a.377.377 0 0 1-.357-.237c-.19-.238-.214-1.857 2.546-11.28l1.214-3.926-7.091 1.999h-.048a.283.283 0 0 1-.285-.238c-.048-.119.071-.286.214-.357l7.448-2.094a294.374 294.374 0 0 1 1.523-4.878c.143-.476.238-.762.238-.762.048-.142.262-.238.404-.214a.525.525 0 0 1 .215.38c-.595 1.69-1.166 3.546-1.69 5.26l4.236-1.214c.119 0 .309.12.38.238 0 .143-.118.31-.237.38Zm8.182 8.376c.095-.119.309-.095.428-.024.071.12.119.333.024.429-2.713 2.736-2.975 2.736-3.141 2.736a.364.364 0 0 1-.262-.143v.024c-.095-.166-.238-.357 1.214-4.569-.31.096-.595.096-.881.072-.333-.024-.785-.143-1.213-.31a14.962 14.962 0 0 1-1.143 2.142c-.999 1.69-1.689 2.332-2.308 2.142-.452-.167-.642-.928-.666-1.785-1.166 1.975-2.213 3.046-2.998 3.046-.167 0-.286-.024-.357-.048-.381-.19-.595-.69-.595-1.404 0-1.023.404-2.57 1.213-4.354.072-.167.262-.238.429-.167.166.071.238.262.166.405-.928 2.022-1.213 3.379-1.213 4.14 0 .428.119.714.261.81.31.142 1.571-.667 3.213-3.999.048-.142.214-.214.357-.166.143.047.214.19.214.333h.024c-.072.643-.095 1.07-.095 1.333 0 .642.047 1.142.238 1.26 0 0 .476-.023 1.618-1.88.499-.856.856-1.546 1.094-2.07-.666-.356-1.213-.904-1.451-1.332-.024-.095-.024-.238.024-.31.047-.095.499-.808 1.166-.951.238-.072.594.024.832.166.262.19.405.524.405.976 0 .333-.071.714-.214 1.142.357.143.714.238 1.071.262.547.048.928-.071 1.166-.428.071-.12.238-.143.38-.072a.289.289 0 0 1 .143.357c-.547 1.547-1.118 3.308-1.38 4.284l.071.07.238-.237c.548-.524 1.285-1.214 1.928-1.88Zm-4.212-2.665.071-.024c.31-1.023.024-1.261-.024-1.285a.487.487 0 0 0-.356-.071c-.286.071-.524.31-.667.523.191.286.548.619.976.857Zm5.101 5.616c-.262 0-.428-.048-.547-.096-.405-.237-.69-.713-.69-1.308 0-.381.071-.81.285-1.261l.119-.262c.952-2.07 2.332-2.808 2.975-2.713.309.024.523.214.571.5.095.737-1.047 1.737-3.07 2.57 0 .024-.024.071-.024.095l.024-.024c-.19.452-.262.81-.262 1.071 0 .404.143.69.357.785.452.214 1.666-.357 2.975-2.332a.363.363 0 0 1 .428-.095c.143.095.143.286.095.428-1.213 1.833-2.451 2.642-3.236 2.642Zm2.094-4.974-.095-.095c-.024 0-.119.024-.309.095-.429.143-.976.595-1.5 1.38l.072.072c1.356-.714 1.761-1.261 1.832-1.452Z"></path>
  </mask>
  <path d="M84.976 34.801H85c.167-.047.31.119.357.262 0 .119-.143.285-.262.333-1.094.214-2.236.904-3.07 1.69.024.166.048.404.048.76 0 .834-.333 1.667-1.69 2.214l.025-.024c-.024 0-.024.024-.048.024a.84.84 0 0 1-.333.071.453.453 0 0 1-.31-.119c-.142-.142-.19-.357-.119-.666.167-.547.81-1.523 1.737-2.403 0-.024-.023-.096-.023-.12v-.118c-.096-.476-.167-.952-.167-1.404 0-1.095.666-2.308 2.927-3.141.119 0 .333.071.38.214.072.119-.047.31-.19.38-1.998.715-2.546 1.595-2.546 2.547 0 .238.072.642.167 1.142.952-.833 2.07-1.475 3.093-1.642Zm-4.735 4.569.071.071c.952-.404 1.166-1.047 1.142-1.784-.594.69-1.07 1.356-1.213 1.713Zm8.356-4.022h-.024a7.88 7.88 0 0 0-.57.667l-.263.357c-1.451 1.856-2.45 2.974-2.974 2.998v-.024c-.167 0-.357-.047-.428-.166-.096-.143-.143-.381-.143-.667 0-1.19.714-3.522 1.19-5.02.047-.167.214-.263.38-.191.167.047.262.214.19.38-.618 1.952-1.19 4.308-1.142 5.045.62-.38 1.642-1.665 2.285-2.474l.19-.262v.024c.857-1.119.976-1.261 1.19-1.261.143 0 .285.142.285.309a.33.33 0 0 1-.166.285Zm-2.451-3.212h.024c-.19.047-.571.071-.428-.167l.07-.142c.048-.096.12-.215.215-.238.19-.048.547 0 .571.142-.143.262-.262.357-.452.405Zm8.44 2.808c.072.143.025.333-.118.404a21.628 21.628 0 0 0-3.522 2.356c-1.166 3.784-2.998 8.257-5.378 9.352-.333.143-.618.214-.856.214-.429 0-.595-.214-.69-.38-.643-1.357 2.38-6.021 6.377-9.448.19-.642.38-1.356.523-1.927l-.071-.048c-.595.81-1.261 1.333-1.785 1.452-.31.071-.57-.024-.785-.238-.167-.19-.238-.452-.238-.785 0-.381.119-.905.357-1.547.571-1.547 1.713-2.19 2.427-1.927.143.047.405.19.595.642.166-.428.262-.761.357-1.07.047-.167.19-.286.357-.239.166.048.285.19.238.31-.024.238-.428 2.213-1.119 4.687 1.024-.833 2.047-1.499 2.927-1.95.167-.048.357-.025.405.142Zm-3.854-.405c.31-.928.119-1.475-.167-1.57l-.023-.024c-.405 0-1.143.452-1.571 1.618-.428 1.118-.333 1.618-.238 1.737.024.072.143.048.214 0 .38-.095 1.142-.69 1.785-1.76ZM85.33 46.51c1.928-.905 3.522-4.45 4.64-7.83l-.071-.07c-3.522 3.307-5.687 7.28-5.306 8.066.023.024.214.048.737-.166Zm14.732-11.684c.119.095.166.285.119.428-.524.88-2.07 3.38-3.094 3.38a.37.37 0 0 1-.285-.144c-.19-.261-.072-.69.5-2.355l.094-.31c.334-1 .857-2.45.762-2.95-1.237.142-3.689 4.212-5.045 7.09-.071.096-.166.167-.285.167h-.12a.31.31 0 0 1-.166-.38c.666-2.166 1.452-4.474 2.118-6.64.071-.142.238-.237.38-.19.167.048.262.214.215.357l-.88 2.784.094.024c1.143-1.88 2.594-3.831 3.713-3.831.19 0 .333.095.452.238v-.024c.38.5-.072 1.951-.738 3.831-.19.524-.452 1.285-.571 1.69.666-.524 1.642-1.856 2.332-3.046.071-.143.262-.19.405-.12Zm5.077-.024c.167.072.19.262.143.428-.214.405-1.809 3.308-3.355 3.308-.143 0-.334-.095-.429-.333-.024-.238 0-.88.167-1.5l-.072-.07c-.476.5-1.047.832-1.665.832-.429 0-.738-.214-.833-.619-.238-.832.642-2.355 1.523-2.974.285-.166.642-.285.904-.285.309 0 .619.095.976.38l.19-.452c.024-.071.024-.095.024-.119a.86.86 0 0 1 .143-.19h-.024c.095-.048.214-.095.262-.048.285.167.214.357.19.452l-.214.595c-.357 1.047-1.023 3.022-1.023 3.736.951-.262 2.117-1.951 2.688-2.998.072-.167.262-.19.405-.143Zm-5.211 2.07c.88 0 1.713-1.142 2.332-2.355-.286-.19-.524-.31-.762-.31-.143 0-.381.072-.571.19-.761.5-1.333 1.785-1.214 2.332.024.096.048.143.215.143Zm12.181-10.327-4.617 1.285c-2.213 7.067-3.998 13.611-3.974 15.039.976-.571 3.046-4.117 3.95-5.664.619-1.094 1.119-1.927 1.404-2.308v.024c.095-.119.31-.143.452-.047h-.023c.095.095.19.237.142.285-.285.38-.856 1.333-1.451 2.356-2.38 4.069-3.641 5.972-4.593 5.972a.377.377 0 0 1-.357-.237c-.19-.238-.214-1.857 2.546-11.28l1.214-3.926-7.091 1.999h-.048a.283.283 0 0 1-.285-.238c-.048-.119.071-.286.214-.357l7.448-2.094a294.374 294.374 0 0 1 1.523-4.878c.143-.476.238-.762.238-.762.048-.142.262-.238.404-.214a.525.525 0 0 1 .215.38c-.595 1.69-1.166 3.546-1.69 5.26l4.236-1.214c.119 0 .309.12.38.238 0 .143-.118.31-.237.38Zm8.182 8.376c.095-.119.309-.095.428-.024.071.12.119.333.024.429-2.713 2.736-2.975 2.736-3.141 2.736a.364.364 0 0 1-.262-.143v.024c-.095-.166-.238-.357 1.214-4.569-.31.096-.595.096-.881.072-.333-.024-.785-.143-1.213-.31a14.962 14.962 0 0 1-1.143 2.142c-.999 1.69-1.689 2.332-2.308 2.142-.452-.167-.642-.928-.666-1.785-1.166 1.975-2.213 3.046-2.998 3.046-.167 0-.286-.024-.357-.048-.381-.19-.595-.69-.595-1.404 0-1.023.404-2.57 1.213-4.354.072-.167.262-.238.429-.167.166.071.238.262.166.405-.928 2.022-1.213 3.379-1.213 4.14 0 .428.119.714.261.81.31.142 1.571-.667 3.213-3.999.048-.142.214-.214.357-.166.143.047.214.19.214.333h.024c-.072.643-.095 1.07-.095 1.333 0 .642.047 1.142.238 1.26 0 0 .476-.023 1.618-1.88.499-.856.856-1.546 1.094-2.07-.666-.356-1.213-.904-1.451-1.332-.024-.095-.024-.238.024-.31.047-.095.499-.808 1.166-.951.238-.072.594.024.832.166.262.19.405.524.405.976 0 .333-.071.714-.214 1.142.357.143.714.238 1.071.262.547.048.928-.071 1.166-.428.071-.12.238-.143.38-.072a.289.289 0 0 1 .143.357c-.547 1.547-1.118 3.308-1.38 4.284l.071.07.238-.237c.548-.524 1.285-1.214 1.928-1.88Zm-4.212-2.665.071-.024c.31-1.023.024-1.261-.024-1.285a.487.487 0 0 0-.356-.071c-.286.071-.524.31-.667.523.191.286.548.619.976.857Zm5.101 5.616c-.262 0-.428-.048-.547-.096-.405-.237-.69-.713-.69-1.308 0-.381.071-.81.285-1.261l.119-.262c.952-2.07 2.332-2.808 2.975-2.713.309.024.523.214.571.5.095.737-1.047 1.737-3.07 2.57 0 .024-.024.071-.024.095l.024-.024c-.19.452-.262.81-.262 1.071 0 .404.143.69.357.785.452.214 1.666-.357 2.975-2.332a.363.363 0 0 1 .428-.095c.143.095.143.286.095.428-1.213 1.833-2.451 2.642-3.236 2.642Zm2.094-4.974-.095-.095c-.024 0-.119.024-.309.095-.429.143-.976.595-1.5 1.38l.072.072c1.356-.714 1.761-1.261 1.832-1.452Z" fill="#525354"></path>
  <path d="M84.976 34.801v-.118h-.01l-.009.002.02.116Zm.024 0v.118h.017l.015-.005-.032-.113Zm.357.262h.118v-.02l-.006-.017-.112.037Zm-.262.333.023.116.01-.003.011-.004-.044-.109Zm-3.07 1.69-.08-.086-.045.042.009.06.117-.016Zm-1.641 2.974-.084-.083.128.192-.044-.11Zm.023-.024.084.083.2-.2h-.284v.117Zm-.047.024v-.118h-.023l-.02.009.043.109Zm-.643-.048-.083.084.083-.084Zm-.119-.666-.112-.034-.002.008.114.026Zm1.737-2.403.082.085.036-.035v-.05h-.118Zm-.023-.238h.118v-.012l-.003-.011-.115.023Zm2.76-4.545v-.118h-.021l-.02.007.041.11Zm.38.214-.111.037.004.012.007.011.1-.06Zm-.19.38.04.112.007-.003.006-.003-.053-.105Zm-2.38 3.689-.115.022.039.202.154-.135-.077-.089Zm-1.641 2.927-.11-.044-.028.072.055.055.083-.083Zm.071.071-.083.084.056.056.073-.031-.046-.109Zm1.142-1.784.118-.004-.01-.302-.197.229.09.077Zm3.522-2.738H85v-.236h-.024v.236Zm.056-.005c.034-.01.071 0 .115.036.044.038.08.096.098.15l.224-.074a.59.59 0 0 0-.17-.255.354.354 0 0 0-.331-.083l.064.226Zm.207.149c0 .02-.015.064-.06.119a.361.361 0 0 1-.127.105l.087.218a.589.589 0 0 0 .223-.175.452.452 0 0 0 .113-.267h-.236Zm-.166.217c-1.123.22-2.284.924-3.128 1.72l.161.171c.822-.775 1.945-1.45 3.012-1.66l-.045-.23Zm-3.164 1.822c.023.161.046.394.046.745h.236c0-.363-.024-.606-.049-.778l-.233.033Zm.046.745c0 .4-.08.792-.316 1.148-.237.357-.638.689-1.3.956l.089.218c.694-.28 1.138-.638 1.407-1.043.27-.406.356-.847.356-1.28h-.236Zm-1.488 2.296.024-.024-.167-.166-.024.024.167.166Zm-.06-.225a.149.149 0 0 0-.074.02c-.018.012-.031.025-.033.027l.013-.01a.09.09 0 0 1 .047-.013v.236a.149.149 0 0 0 .075-.02.158.158 0 0 0 .032-.027c.005-.004-.002.004-.013.01a.09.09 0 0 1-.046.013v-.236Zm-.09.033a.724.724 0 0 1-.29.063v.235a.955.955 0 0 0 .377-.08l-.088-.218Zm-.29.063a.336.336 0 0 1-.226-.085l-.167.167a.57.57 0 0 0 .393.153v-.236Zm-.226-.085c-.104-.103-.154-.27-.088-.556l-.23-.053c-.076.331-.031.593.151.776l.167-.167Zm-.09-.549c.078-.256.272-.625.567-1.043.293-.416.68-.874 1.139-1.309l-.163-.17c-.47.445-.867.915-1.169 1.344-.3.426-.51.819-.6 1.11l.226.068Zm1.742-2.437a.25.25 0 0 0-.006-.05 1.03 1.03 0 0 0-.016-.069c-.003-.01-.001-.008-.001 0h-.236c0 .02.004.04.006.05l.01.038.007.03c.002.01 0 .009 0 0h.236Zm-.023-.12v-.118h-.236v.119h.236Zm-.003-.141c-.094-.474-.164-.94-.164-1.381h-.236c0 .463.073.948.17 1.427l.23-.046Zm-.164-1.381c0-.522.158-1.072.589-1.594.432-.524 1.144-1.025 2.26-1.437l-.08-.22c-1.144.42-1.896.942-2.362 1.507a2.684 2.684 0 0 0-.643 1.744h.236Zm2.809-3.023c.04 0 .106.013.166.041.062.03.094.065.103.092l.224-.074a.415.415 0 0 0-.225-.23.655.655 0 0 0-.268-.065v.236Zm.28.157c.004.007.012.036-.018.091a.309.309 0 0 1-.124.123l.105.211a.543.543 0 0 0 .227-.222c.047-.088.079-.213.012-.325l-.202.121Zm-.13.209c-1.008.36-1.665.767-2.07 1.215-.408.453-.553.94-.553 1.442h.235c0-.45.128-.88.493-1.284.369-.408.985-.798 1.975-1.151l-.08-.222ZM81.6 35.3c0 .252.074.669.168 1.164l.232-.044c-.096-.504-.165-.896-.165-1.12h-.236Zm.361 1.23c.943-.824 2.042-1.452 3.035-1.614l-.038-.232c-1.053.171-2.191.829-3.152 1.67l.155.177Zm-1.802 2.922.071.072.167-.167-.072-.071-.166.166Zm.2.097c.495-.21.81-.488.994-.819.184-.329.233-.698.22-1.078l-.235.007c.011.358-.035.679-.19.956-.155.276-.423.523-.88.717l.091.217Zm1.007-1.97c-.3.347-.57.689-.783.99-.212.299-.374.564-.45.756l.218.088c.066-.165.214-.412.424-.708.209-.294.474-.63.77-.973l-.179-.153Zm7.232-2.232v.118h.028l.025-.012-.053-.106Zm-.024 0v-.117h-.049l-.034.034.083.083Zm-.57.667-.094-.072-.002.002.095.07Zm-.263.357.093.072.002-.003-.095-.07Zm-2.974 2.998h-.118v.123l.123-.006-.005-.117Zm0-.024h.118v-.118h-.118v.118Zm-.428-.166.1-.061-.002-.005-.099.066Zm1.047-5.688.112.036v-.003l-.112-.033Zm.38-.19-.046.108.007.003.007.002.032-.113Zm.19.38-.108-.046-.004.011.113.036Zm-1.142 5.045-.117.008.013.195.166-.102-.062-.1Zm2.285-2.474.092.073.003-.004-.095-.07Zm.19-.262h.118v-.362l-.213.293.095.069Zm0 .024h-.118v.347l.212-.276-.094-.071Zm-1.142-3.88-.029-.113.029.232v-.118Zm.024 0 .028.115-.028-.232v.118Zm-.428-.166.1.061.005-.008-.105-.053Zm.07-.142.106.052-.105-.052Zm.215-.238-.029-.115.029.115Zm.571.142.103.057.02-.036-.007-.04-.116.02Zm1.999 3.5h-.024v.235h.024v-.235Zm-.107.034c-.1.1-.34.365-.581.678l.186.144c.236-.306.47-.564.561-.655l-.166-.167Zm-.583.68-.262.357.19.14.262-.358-.19-.139Zm-.26.354c-.725.928-1.335 1.667-1.827 2.177-.246.255-.46.45-.642.58-.185.135-.322.192-.418.196l.011.235c.167-.007.35-.099.545-.24.198-.142.423-.348.674-.607.501-.52 1.117-1.267 1.843-2.196l-.186-.145Zm-2.763 3.07v-.023h-.236v.024h.236Zm-.118-.14a.668.668 0 0 1-.212-.033c-.064-.022-.1-.05-.115-.077l-.202.121a.44.44 0 0 0 .24.179.9.9 0 0 0 .289.045v-.236Zm-.33-.115c-.076-.113-.124-.322-.124-.6h-.235c0 .292.048.559.163.73l.196-.13Zm-.124-.6c0-.58.175-1.446.413-2.366.237-.916.534-1.87.772-2.62l-.225-.071c-.238.75-.536 1.71-.775 2.632-.238.92-.42 1.813-.42 2.424h.236Zm1.186-4.99c.03-.106.127-.154.22-.114l.094-.216c-.24-.103-.476.04-.54.266l.226.065Zm.235-.109c.107.03.154.128.114.221l.217.093c.103-.24-.04-.476-.266-.54l-.065.226Zm.11.232a40.71 40.71 0 0 0-.823 2.986c-.108.465-.194.892-.251 1.25-.057.357-.086.653-.073.852l.235-.015c-.011-.17.014-.445.07-.8.056-.35.142-.772.248-1.233.214-.922.51-1.996.819-2.969l-.225-.07Zm-.968 5.18c.327-.2.748-.63 1.16-1.099.416-.472.834-.998 1.155-1.402l-.184-.147c-.322.405-.737.926-1.148 1.394-.414.471-.814.874-1.106 1.054l.123.2Zm2.318-2.505.19-.262-.19-.138-.19.261.19.139Zm-.023-.331v.024h.236v-.024h-.236Zm.212.095c.43-.561.67-.87.828-1.041a.78.78 0 0 1 .17-.15.179.179 0 0 1 .098-.024v-.235a.414.414 0 0 0-.214.055.991.991 0 0 0-.226.193c-.169.181-.417.502-.843 1.059l.187.143Zm1.096-1.215c.033 0 .075.017.11.056a.201.201 0 0 1 .058.136h.235a.436.436 0 0 0-.121-.298.395.395 0 0 0-.282-.13v.236Zm.168.192c0 .078-.05.154-.102.18l.106.21a.447.447 0 0 0 .231-.39h-.235Zm-2.5-2.81h.024v-.235h-.024v.236Zm-.005-.231a.815.815 0 0 1-.29.022c-.043-.008-.038-.018-.029-.003.016.026-.007.034.02-.011l-.201-.121c-.045.074-.073.168-.02.255.046.076.131.102.19.112.124.022.285 0 .387-.026l-.057-.228Zm-.294 0 .071-.143-.21-.105-.072.143.21.105Zm.071-.143a.722.722 0 0 1 .076-.125c.03-.036.05-.048.062-.051l-.058-.229a.362.362 0 0 0-.188.133.945.945 0 0 0-.103.167l.211.105Zm.138-.176a.742.742 0 0 1 .295.001c.051.01.09.025.114.04.026.015.02.02.017.007l.232-.039a.252.252 0 0 0-.128-.17.608.608 0 0 0-.187-.069.971.971 0 0 0-.4.001l.057.229Zm.439-.028a.894.894 0 0 1-.183.25.44.44 0 0 1-.195.097l.058.228a.673.673 0 0 0 .293-.147c.086-.076.159-.179.233-.315l-.206-.113Zm8.092 3.269-.114.032.004.01.004.01.106-.052Zm-.12.404-.052-.105-.002.001.055.104Zm-3.52 2.356-.076-.091-.027.023-.01.033.112.035Zm-5.379 9.352.047.108.002-.001-.049-.107Zm-1.546-.167-.107.05.004.009.103-.059Zm6.377-9.447.076.09.027-.023.01-.033-.113-.034Zm.523-1.927.115.029.02-.081-.07-.046-.065.098Zm-.071-.048.065-.098-.093-.062-.067.09.095.07Zm-1.785 1.452-.026-.115.026.115Zm-.785-.238-.089.078.006.005.083-.083Zm.119-2.332.11.04-.11-.04Zm2.427-1.927-.04.11.003.001.037-.111Zm.595.642-.109.046.113.268.106-.271-.11-.043Zm.357-1.07.112.034.001-.002-.113-.033Zm.595.07-.11-.043-.006.015-.001.017.117.012Zm-1.119 4.688-.113-.031-.1.357.288-.234-.075-.092Zm2.927-1.95-.032-.114-.011.003-.01.005.053.105Zm-3.45-.263.1.06.008-.01.004-.012-.112-.038Zm-.167-1.57-.083.083.02.02.026.008.037-.111Zm-.023-.024.083-.083-.035-.035h-.049v.118Zm-1.571 1.618.11.042v-.001l-.11-.04Zm-.238 1.737.112-.037-.007-.02-.013-.016-.092.073Zm.214 0-.028-.114-.02.005-.017.011.065.098ZM85.33 46.51l.045.109.005-.003-.05-.106Zm4.64-7.83.112.038.023-.07-.051-.05-.084.083Zm-.071-.07.083-.084-.08-.08-.084.078.081.085Zm-5.306 8.066-.106.052.008.017.014.014.084-.083Zm9.888-11.678c.048.094.01.208-.066.246l.105.21c.21-.105.268-.37.172-.562l-.21.105Zm-.068.247a21.745 21.745 0 0 0-3.541 2.369l.149.182a21.513 21.513 0 0 1 3.502-2.343l-.11-.208Zm-3.58 2.425c-.582 1.89-1.329 3.946-2.225 5.665-.9 1.725-1.938 3.085-3.089 3.615l.098.214c1.229-.565 2.297-1.99 3.2-3.72.906-1.737 1.658-3.81 2.242-5.704l-.225-.07Zm-5.311 9.279c-.326.14-.595.204-.81.204v.236c.26 0 .562-.078.903-.224l-.093-.216Zm-.81.204a.681.681 0 0 1-.403-.107.627.627 0 0 1-.185-.214l-.205.117a.86.86 0 0 0 .255.29c.13.09.302.15.538.15v-.236Zm-.584-.313c-.067-.142-.091-.34-.064-.592.028-.25.105-.548.231-.883.251-.67.689-1.479 1.273-2.356 1.169-1.755 2.917-3.77 4.907-5.476l-.153-.179c-2.007 1.72-3.769 3.75-4.95 5.524-.59.886-1.038 1.712-1.298 2.405-.13.346-.214.663-.244.94-.03.276-.008.521.085.718l.213-.101Zm6.384-9.363c.19-.645.382-1.36.525-1.932l-.229-.058c-.143.57-.332 1.282-.522 1.923l.226.067Zm.476-2.06-.072-.047-.13.196.07.048.132-.196Zm-.232-.018c-.59.8-1.234 1.296-1.716 1.406l.052.23c.565-.129 1.253-.68 1.854-1.497l-.19-.14Zm-1.716 1.406c-.265.061-.487-.017-.676-.206l-.166.166c.239.24.54.351.895.27l-.053-.23Zm-.67-.2c-.141-.161-.21-.39-.21-.708h-.235c0 .348.075.642.267.862l.178-.155Zm-.21-.708c0-.36.114-.868.35-1.506l-.22-.082c-.24.647-.365 1.186-.365 1.588h.236Zm.35-1.506c.28-.755.694-1.282 1.119-1.587.427-.308.85-.384 1.157-.27l.082-.222c-.406-.149-.911-.035-1.377.3-.468.338-.91.905-1.202 1.697l.221.082Zm2.28-1.857c.111.037.346.157.523.577l.218-.092c-.204-.484-.493-.65-.667-.708l-.074.223Zm.742.574c.168-.434.265-.772.36-1.08l-.226-.069c-.095.312-.19.64-.354 1.063l.22.086Zm.36-1.081c.037-.13.13-.18.212-.158l.064-.226c-.252-.072-.444.115-.502.319l.226.065Zm.212-.158a.277.277 0 0 1 .139.088c.028.036.025.057.021.065l.22.087c.044-.111.005-.22-.056-.298a.512.512 0 0 0-.26-.168l-.065.227Zm.153.185c-.011.11-.116.655-.307 1.49-.19.832-.464 1.942-.808 3.178l.227.063c.346-1.24.62-2.354.81-3.188.19-.83.3-1.392.312-1.52l-.234-.023Zm-.927 4.79c1.017-.828 2.034-1.49 2.906-1.937l-.108-.21c-.888.457-1.918 1.128-2.947 1.965l.149.183Zm2.885-1.929a.352.352 0 0 1 .182-.008c.043.011.066.033.076.07l.227-.065a.332.332 0 0 0-.24-.232.584.584 0 0 0-.31.009l.065.226Zm-3.371-.337c.158-.477.193-.865.144-1.155-.048-.284-.183-.497-.385-.565l-.075.224c.083.027.186.135.227.38.041.24.016.59-.135 1.041l.224.075Zm-.195-1.691-.024-.024-.167.166.024.024.167-.166Zm-.108-.059c-.24 0-.553.132-.855.402-.304.273-.606.695-.826 1.294l.222.08c.208-.566.49-.954.762-1.199.275-.247.534-.341.698-.341v-.236Zm-1.68 1.694c-.217.567-.304.983-.323 1.278-.01.147-.002.266.016.36.018.09.047.164.087.215l.184-.147a.288.288 0 0 1-.04-.113 1.207 1.207 0 0 1-.012-.3c.017-.264.097-.657.308-1.209l-.22-.084Zm-.24 1.816c.038.115.15.13.21.125a.392.392 0 0 0 .182-.064l-.131-.196a.173.173 0 0 1-.068.025c-.01.001-.007-.001.001.003a.056.056 0 0 1 .017.012c.007.007.01.015.013.021l-.224.075Zm.355.077c.219-.054.522-.243.845-.542a5.822 5.822 0 0 0 1.012-1.272l-.202-.121c-.316.526-.66.934-.97 1.22-.313.29-.58.447-.742.487l.057.228ZM85.38 46.615c1-.469 1.896-1.61 2.677-3.036.784-1.43 1.465-3.17 2.025-4.862l-.223-.074c-.559 1.686-1.234 3.41-2.009 4.823-.777 1.418-1.642 2.5-2.57 2.936l.1.213Zm4.674-8.019-.072-.07-.166.166.071.071.167-.166Zm-.236-.073c-1.768 1.66-3.197 3.49-4.136 5.003-.47.756-.818 1.437-1.026 1.98a3.644 3.644 0 0 0-.206.715c-.03.197-.027.374.037.506l.212-.103c-.032-.065-.044-.184-.016-.367.028-.18.092-.403.193-.666.2-.526.542-1.193 1.006-1.941.93-1.497 2.345-3.31 4.098-4.956l-.162-.172Zm-5.309 8.235a.157.157 0 0 0 .067.039.29.29 0 0 0 .06.01c.04.003.092 0 .156-.01.128-.02.316-.07.583-.18l-.09-.217c-.256.105-.425.149-.529.165a.474.474 0 0 1-.103.007l-.01-.001.01.003a.096.096 0 0 1 .023.018l-.167.166Zm15.553-11.933.073-.092-.01-.008-.011-.006-.052.106Zm.119.428.101.06.006-.01.004-.013-.111-.037Zm-3.38 3.236.099-.065-.003-.004-.096.07Zm.5-2.355.112.038v-.004l-.112-.034Zm.095-.31-.111-.037-.001.003.112.034Zm.762-2.95.116-.022-.02-.108-.11.013.014.117Zm-5.045 7.09.094.071.008-.01.005-.01-.107-.05Zm-.404.167-.053.106.025.012h.028v-.118Zm-.167-.38-.113-.035v.002l.113.033Zm2.118-6.64-.105-.052-.005.009-.003.009.113.035Zm.38-.19-.037.112.005.002.033-.114Zm.215.357-.112-.037v.002l.112.035Zm-.88 2.784-.113-.035-.038.12.122.03.028-.115Zm.094.024-.028.114.084.021.045-.074-.1-.061Zm4.165-3.593-.09.075.208.25v-.325h-.118Zm0-.024.094-.071-.212-.278v.35h.118Zm-.738 3.831.11.04h.001l-.11-.04Zm-.571 1.69-.113-.034-.104.354.29-.228-.073-.092Zm2.332-3.046.102.06.003-.008-.105-.052Zm.33-.027a.26.26 0 0 1 .083.135.303.303 0 0 1-.001.164l.223.074a.528.528 0 0 0 .005-.3.492.492 0 0 0-.162-.257l-.147.184Zm.092.276c-.261.44-.775 1.279-1.35 2.007a6.464 6.464 0 0 1-.876.938c-.293.244-.554.376-.766.376v.236c.3 0 .615-.18.917-.431.306-.256.617-.603.91-.973.585-.741 1.105-1.591 1.368-2.033l-.203-.12Zm-2.992 3.321a.252.252 0 0 1-.114-.03.209.209 0 0 1-.073-.06l-.197.13a.487.487 0 0 0 .383.195v-.235Zm-.19-.094c-.064-.087-.092-.214-.016-.556.075-.34.245-.857.532-1.692l-.223-.077c-.285.831-.46 1.362-.54 1.718-.078.353-.07.571.056.746l.19-.139Zm.517-2.252.095-.31-.225-.068-.095.309.225.07Zm.094-.306c.166-.498.381-1.114.543-1.667.08-.277.149-.541.19-.769.042-.223.06-.426.033-.574l-.232.044c.02.102.009.267-.032.488-.04.216-.106.471-.185.745-.16.547-.373 1.156-.54 1.658l.223.075Zm.636-3.105c-.182.02-.374.112-.57.247a4.191 4.191 0 0 0-.621.552c-.431.453-.9 1.071-1.37 1.771-.942 1.401-1.896 3.144-2.576 4.588l.213.1c.676-1.435 1.625-3.167 2.558-4.556.467-.695.927-1.301 1.346-1.74.209-.22.405-.397.585-.521.18-.125.335-.193.462-.207l-.027-.234Zm-5.125 7.137c-.06.08-.125.12-.191.12v.235c.17 0 .297-.103.38-.214l-.19-.14Zm-.191.12h-.12v.235h.12v-.236Zm-.067.012c-.094-.047-.137-.133-.106-.243l-.226-.065a.428.428 0 0 0 .227.519l.105-.211Zm-.106-.24c.332-1.083.695-2.2 1.058-3.319.363-1.118.726-2.237 1.06-3.32l-.226-.07c-.332 1.082-.695 2.2-1.058 3.318-.363 1.118-.726 2.237-1.06 3.321l.226.07Zm2.11-6.622c.054-.107.168-.155.238-.131l.075-.224c-.215-.071-.434.072-.523.25l.21.105Zm.243-.13c.113.033.158.138.135.207l.224.074c.072-.216-.074-.444-.294-.507l-.065.227Zm.135.209-.881 2.784.225.07.88-2.783-.225-.071Zm-.797 2.933.095.024.057-.228-.095-.024-.057.228Zm.224-.029c.57-.937 1.214-1.888 1.852-2.603.32-.357.634-.653.935-.857.301-.206.579-.314.825-.314v-.236c-.313 0-.637.136-.958.355-.322.22-.651.53-.977.895-.653.73-1.306 1.696-1.878 2.638l.201.122Zm3.612-3.774c.144 0 .256.069.361.195l.181-.15c-.132-.16-.305-.28-.542-.28v.235Zm.57.12v-.024h-.236v.024h.236Zm-.212.047c.072.096.114.25.115.474 0 .224-.039.5-.112.827-.147.653-.425 1.48-.758 2.42l.222.079c.333-.94.615-1.779.765-2.447.076-.334.12-.63.119-.88-.001-.245-.046-.46-.163-.615l-.188.142Zm-.755 3.72a35.8 35.8 0 0 0-.573 1.697l.226.066c.118-.4.379-1.16.569-1.683l-.222-.08Zm-.387 1.822c.345-.271.763-.745 1.178-1.294.417-.552.836-1.186 1.183-1.785l-.204-.118a18.003 18.003 0 0 1-1.167 1.76c-.412.546-.815 1-1.136 1.252l.146.185Zm2.364-3.086c.038-.075.152-.113.247-.066l.105-.21c-.19-.096-.457-.04-.562.171l.21.105Zm5.377-.195.047-.109-.01-.003-.037.112Zm.143.428.104.056.006-.011.003-.012-.113-.033Zm-3.784 2.975-.117.012.002.016.006.016.109-.044Zm.167-1.5.114.031.017-.065-.048-.049-.083.084Zm-.072-.07.084-.084-.086-.085-.083.087.085.081Zm-2.498.213.115-.026-.002-.006-.113.032Zm1.523-2.974-.06-.102-.008.006.068.096Zm1.88.095-.074.092.122.098.06-.144-.108-.046Zm.19-.452.109.046.003-.009-.112-.037Zm.024-.119-.101-.06-.017.027v.033h.118Zm.143-.19.083.083.201-.201h-.284v.118Zm-.024 0-.053-.106.053.224v-.118Zm.262-.048-.084.084.011.01.013.008.06-.102Zm.19.452.111.04.003-.011-.114-.029Zm-.214.595-.111-.04-.001.002.112.038Zm-1.023 3.736h-.118v.155l.149-.041-.031-.114Zm2.688-2.998.104.056.005-.01-.109-.046Zm-2.474-.428.105.053.047-.093-.087-.059-.065.099Zm-1.333-.12-.062-.1-.003.002.065.099Zm-1.214 2.332-.115.026.001.003.114-.029Zm5.38-1.819c.045.02.071.054.084.101a.356.356 0 0 1-.009.187l.227.065a.592.592 0 0 0 .009-.313.375.375 0 0 0-.219-.256l-.092.216Zm.085.265c-.106.2-.554 1.02-1.166 1.788-.306.384-.65.75-1.01 1.02-.36.272-.725.437-1.075.437v.236c.423 0 .837-.198 1.217-.484.381-.286.739-.67 1.052-1.063a12.787 12.787 0 0 0 1.19-1.823l-.208-.11Zm-3.251 3.245c-.093 0-.241-.064-.319-.259l-.219.088c.112.28.345.407.538.407v-.236Zm-.312-.227c-.022-.223 0-.85.164-1.457l-.228-.06c-.17.63-.195 1.287-.17 1.54l.234-.023Zm.133-1.57-.071-.072-.167.167.071.071.167-.167Zm-.24-.07c-.463.487-1.006.796-1.58.796v.236c.662 0 1.262-.357 1.751-.87l-.171-.162Zm-1.58.796a.788.788 0 0 1-.472-.135.653.653 0 0 1-.246-.392l-.23.053a.887.887 0 0 0 .337.53c.167.121.377.18.61.18v-.236Zm-.72-.533c-.052-.182-.045-.411.015-.67.06-.257.171-.535.318-.81.294-.55.723-1.07 1.144-1.366l-.135-.192c-.459.322-.91.873-1.217 1.447a3.624 3.624 0 0 0-.34.868c-.064.28-.078.553-.011.788l.226-.065Zm1.469-2.84c.275-.16.611-.27.845-.27v-.235c-.29 0-.667.128-.964.301l.119.204Zm.845-.27c.28 0 .564.084.902.355l.147-.184c-.375-.3-.71-.406-1.049-.406v.235Zm1.084.309.191-.452-.218-.092-.19.453.217.09Zm.194-.46a.588.588 0 0 0 .03-.157h-.236l-.001.022a.483.483 0 0 1-.017.06l.224.074Zm.013-.096a.735.735 0 0 1 .125-.168l-.167-.166c-.029.029-.083.084-.16.212l.202.122Zm.042-.369h-.024v.236h.024v-.236Zm.028.223a.668.668 0 0 1 .125-.05.1.1 0 0 1 .028-.005c.001 0-.013 0-.027-.014l.167-.167a.19.19 0 0 0-.122-.054.322.322 0 0 0-.103.011.866.866 0 0 0-.173.068l.105.211Zm.15-.051c.12.07.148.133.155.172.009.05-.005.092-.019.15l.228.057c.009-.037.043-.138.023-.25-.023-.12-.103-.236-.268-.333l-.119.204Zm.139.31-.214.595.222.08.214-.595-.222-.08Zm-.215.597a53.858 53.858 0 0 0-.647 1.998c-.106.358-.201.707-.27 1.013a3.835 3.835 0 0 0-.112.763h.235a3.6 3.6 0 0 1 .107-.712c.067-.298.161-.642.266-.997.211-.712.466-1.465.644-1.989l-.223-.076Zm-.88 3.888c.261-.072.527-.239.786-.455.259-.218.517-.492.761-.789.487-.593.926-1.283 1.214-1.812l-.207-.113a11.998 11.998 0 0 1-1.189 1.776c-.238.29-.486.552-.731.757-.246.207-.482.35-.697.408l.063.228Zm2.766-3.066a.141.141 0 0 1 .099-.084.283.283 0 0 1 .16.007l.074-.224a.518.518 0 0 0-.298-.01.379.379 0 0 0-.252.218l.217.093Zm-4.915 2c.491 0 .949-.318 1.351-.763.406-.448.774-1.047 1.086-1.658l-.21-.107c-.307.602-.665 1.181-1.051 1.607-.388.43-.787.684-1.176.684v.236Zm2.397-2.573c-.287-.19-.551-.329-.827-.329v.236c.2 0 .412.1.696.29l.131-.197Zm-.827-.329c-.17 0-.429.081-.633.209l.125.2c.176-.11.393-.173.508-.173v-.236Zm-.636.21c-.404.266-.749.732-.977 1.195a3.306 3.306 0 0 0-.254.683c-.05.213-.068.416-.033.578l.23-.05a1.136 1.136 0 0 1 .032-.473c.047-.196.127-.415.236-.634.218-.442.539-.868.896-1.102l-.13-.197Zm-1.263 2.46c.012.044.03.118.094.17.063.05.146.061.235.061v-.235c-.079 0-.09-.013-.087-.01.004.003 0 .006-.013-.044l-.229.057Zm12.51-10.214.031.113.015-.004.014-.008-.06-.101Zm-4.617 1.285-.031-.114-.062.018-.019.06.112.036Zm-3.974 15.039-.118.002.004.201.174-.102-.06-.101Zm3.95-5.664.102.06.001-.002-.103-.058Zm1.404-2.308h.118v-.353l-.212.283.094.07Zm0 .024h-.118v.336l.21-.262-.092-.074Zm.452-.047v.117h.389l-.323-.216-.066.099Zm-.023 0v-.118h-.285l.201.2.084-.082Zm.142.285-.083-.083-.006.006-.005.006.094.071Zm-1.451 2.356.102.06v-.001l-.102-.06Zm-4.95 5.735.109-.047-.007-.014-.01-.013-.092.074Zm2.546-11.28-.112-.034-.001.001.113.033Zm1.214-3.926.113.035.064-.207-.209.059.032.113Zm-7.091 1.999v.118h.016l.016-.005-.032-.113Zm-.333-.238.116-.02-.002-.012-.005-.012-.11.044Zm.214-.357-.032-.113-.01.003-.01.005.052.105Zm7.448-2.094.032.113.062-.017.019-.062-.113-.034Zm1.523-4.878.112.036.001-.002-.113-.034Zm.238-.762.112.038-.112-.038Zm.404-.214.061-.1-.019-.012-.022-.004-.02.116Zm.215.38.111.04.006-.019v-.02h-.117Zm-1.69 5.26-.113-.035-.063.208.209-.06-.033-.113Zm4.236-1.214v-.118h-.017l-.016.005.033.113Zm.38.238h.118v-.032l-.016-.028-.102.06Zm-.269.267-4.616 1.285.063.227 4.616-1.285-.063-.227Zm-4.697 1.364c-1.107 3.534-2.107 6.939-2.827 9.639a74.19 74.19 0 0 0-.85 3.452c-.198.923-.309 1.612-.303 1.985l.236-.004c-.006-.341.098-1.005.297-1.932.198-.922.488-2.092.847-3.44.719-2.696 1.718-6.097 2.825-9.63l-.225-.07Zm-3.802 15.175c.265-.155.589-.5.934-.936.349-.441.73-.99 1.107-1.566.754-1.154 1.499-2.43 1.951-3.203l-.203-.119c-.453.774-1.195 2.044-1.946 3.192a21.574 21.574 0 0 1-1.094 1.55c-.345.437-.646.749-.868.88l.119.202Zm3.993-5.707c.619-1.096 1.115-1.922 1.396-2.295l-.189-.141c-.291.388-.794 1.227-1.412 2.32l.205.116Zm1.183-2.366v.024h.236v-.024h-.236Zm.21.098a.193.193 0 0 1 .129-.06c.06-.007.12.006.166.037l.131-.197a.491.491 0 0 0-.322-.075.425.425 0 0 0-.288.148l.184.147Zm.36-.24h-.023v.236h.023v-.235Zm-.107.202a.705.705 0 0 1 .106.134.108.108 0 0 1 .015.037c.001.004-.005-.025.022-.052l.167.166a.174.174 0 0 0 .044-.154.384.384 0 0 0-.042-.111.924.924 0 0 0-.145-.187l-.167.167Zm.132.131c-.291.388-.866 1.347-1.459 2.368l.204.118c.596-1.026 1.163-1.97 1.444-2.344l-.189-.142Zm-1.459 2.367c-1.19 2.036-2.097 3.523-2.824 4.502-.364.49-.679.846-.958 1.08-.28.233-.511.333-.709.333v.235c.278 0 .562-.138.86-.388.3-.25.628-.624.996-1.12.736-.99 1.649-2.489 2.839-4.523l-.204-.119Zm-4.491 5.915a.258.258 0 0 1-.248-.167l-.217.093c.092.215.281.31.465.31v-.236Zm-.265-.194a.264.264 0 0 1-.034-.111 1.795 1.795 0 0 1-.011-.348c.014-.324.078-.836.236-1.64.314-1.607.997-4.363 2.377-9.074l-.227-.066c-1.38 4.713-2.065 7.477-2.382 9.095-.158.808-.225 1.334-.239 1.675-.007.17-.002.298.013.394a.475.475 0 0 0 .083.222l.184-.147Zm2.567-11.17 1.214-3.927-.225-.07-1.214 3.927.225.07Zm1.069-4.075-7.091 1.998.064.227 7.091-1.999-.064-.226Zm-7.06 1.994h-.047v.236h.048v-.236Zm-.047 0a.165.165 0 0 1-.169-.14l-.232.04a.4.4 0 0 0 .401.336v-.236Zm-.176-.164c-.003-.009-.006-.039.026-.09a.348.348 0 0 1 .132-.118l-.106-.21a.583.583 0 0 0-.225.202c-.051.08-.09.194-.046.304l.22-.088Zm.137-.2 7.448-2.094-.064-.226-7.448 2.094.064.226Zm7.529-2.173a284.06 284.06 0 0 1 1.522-4.876l-.224-.073c-.31.953-.881 2.762-1.524 4.88l.226.07Zm1.523-4.878c.071-.238.13-.427.172-.558l.048-.15.012-.037.004-.01v-.003h.001l-.112-.038-.112-.037v.001l-.001.003a.058.058 0 0 0-.003.01l-.013.039-.049.15c-.042.132-.101.323-.173.562l.226.068Zm.237-.758c.01-.03.045-.07.107-.102a.295.295 0 0 1 .166-.034l.039-.232a.526.526 0 0 0-.31.056.435.435 0 0 0-.226.237l.224.075Zm.232-.15a.34.34 0 0 1 .109.127.362.362 0 0 1 .048.152h.235a.588.588 0 0 0-.076-.264.579.579 0 0 0-.195-.218l-.121.202Zm.163.24c-.595 1.692-1.167 3.55-1.691 5.263l.226.07c.523-1.714 1.094-3.568 1.688-5.255l-.223-.078Zm-1.545 5.411 4.235-1.213-.065-.227-4.235 1.214.065.226Zm4.203-1.209a.33.33 0 0 1 .146.056c.061.04.11.087.133.125l.203-.121a.662.662 0 0 0-.212-.203.545.545 0 0 0-.27-.093v.236Zm.263.12c0 .041-.018.096-.056.153a.408.408 0 0 1-.125.127l.121.202a.66.66 0 0 0 .202-.2.532.532 0 0 0 .093-.282h-.235Zm8.062 8.757.085.082.007-.008-.092-.074Zm.428-.024.101-.06-.015-.026-.025-.015-.061.101Zm.024.429-.083-.084h-.001l.084.084Zm-3.403 2.593.098-.065-.216-.324v.39h.118Zm0 .024-.102.059.22.385v-.444h-.118Zm1.214-4.569.111.039.076-.22-.222.069.035.112Zm-.881.072.01-.118h-.001l-.009.118Zm-1.213-.31.042-.11-.106-.04-.045.105.109.045Zm-1.143 2.142-.099-.063-.002.003.101.06Zm-2.308 2.142-.041.11.007.002.034-.112Zm-.666-1.785.118-.003-.012-.409-.207.352.101.06Zm-3.355 2.998-.053.106.008.003.007.003.038-.112Zm.618-5.758.108.048.001-.002-.109-.046Zm.429-.167-.047.108.047-.108Zm.166.405-.105-.053-.002.003.107.05Zm-.952 4.95-.065.097.008.005.008.004.049-.107Zm3.213-3.999.106.052.003-.007.003-.007-.112-.038Zm.571.167h-.118v.118h.118v-.118Zm.024 0 .117.013.014-.13h-.131v.117Zm.143 2.594-.063.1.032.02.036-.003-.005-.117Zm1.618-1.88.1.062.001-.003-.101-.06Zm1.094-2.07.108.048.045-.1-.097-.052-.056.104Zm-1.451-1.333-.115.029.004.015.008.013.103-.057Zm.024-.31.098.066.004-.006.003-.007-.105-.052Zm1.166-.951.024.115.009-.002-.033-.113Zm.832.166.07-.095-.009-.006-.061.101Zm.191 2.118-.112-.037-.035.105.103.042.044-.11Zm1.071.262.01-.117h-.003l-.007.117Zm1.166-.428.098.065.003-.005-.101-.06Zm.38-.072-.052.106.052-.106Zm.143.357-.109-.044-.002.005.111.04Zm-1.38 4.284-.114-.031-.017.066.048.048.083-.083Zm.071.07-.083.084.083.084.084-.084-.084-.083Zm.238-.237-.081-.085-.002.002.083.083Zm-2.284-4.545-.057.103.045.025.049-.016-.037-.112Zm.071-.024.038.112.057-.02.018-.058-.113-.034Zm-.024-1.285-.06.101.008.005.052-.106Zm-.356-.071-.024-.116-.005.002.029.114Zm-.667.523-.098-.065-.043.065.043.066.098-.066Zm5.28 3.596c.016-.021.052-.04.113-.04.06 0 .122.019.162.043l.122-.202a.573.573 0 0 0-.284-.076.37.37 0 0 0-.297.127l.184.148Zm.235-.037a.466.466 0 0 1 .058.175c.008.068-.007.1-.016.11l.166.166c.086-.086.095-.21.085-.302a.707.707 0 0 0-.091-.27l-.202.12Zm.041.285c-1.356 1.368-2.096 2.048-2.515 2.385-.211.17-.335.248-.413.285a.35.35 0 0 1-.079.028.255.255 0 0 1-.05.003v.236c.021 0 .053 0 .093-.008a.566.566 0 0 0 .137-.046c.103-.049.244-.141.459-.314.431-.347 1.179-1.035 2.536-2.404l-.168-.165Zm-3.057 2.701a.201.201 0 0 1-.091-.03.225.225 0 0 1-.073-.06l-.196.13a.46.46 0 0 0 .153.136.44.44 0 0 0 .207.06v-.236Zm-.38-.025v.024h.236v-.024h-.236Zm.22-.034c-.012-.023-.019-.035-.025-.052a.293.293 0 0 1-.014-.086c-.003-.092.012-.25.079-.545.132-.588.457-1.683 1.183-3.79l-.223-.076c-.725 2.106-1.055 3.212-1.19 3.814-.068.3-.089.483-.084.606a.502.502 0 0 0 .026.154c.014.042.033.072.044.092l.204-.117Zm1.077-4.623c-.289.089-.557.09-.836.066l-.02.235c.293.025.595.025.925-.076l-.069-.225Zm-.837.066c-.317-.022-.757-.137-1.18-.301l-.085.22c.434.168.899.291 1.248.316l.017-.235Zm-1.331-.237a14.924 14.924 0 0 1-1.133 2.124l.199.126c.526-.838.887-1.533 1.151-2.159l-.217-.091Zm-1.135 2.127c-.498.843-.914 1.413-1.276 1.75-.361.335-.645.416-.896.339l-.069.225c.368.113.737-.031 1.126-.392.388-.36.817-.955 1.318-1.802l-.203-.12Zm-2.166 2.091c-.175-.064-.319-.253-.423-.56-.102-.303-.155-.695-.166-1.117l-.236.006c.012.435.067.852.179 1.186.111.329.287.604.565.706l.081-.22Zm-.808-1.734c-.581.983-1.129 1.736-1.625 2.24-.501.51-.93.748-1.272.748v.236c.442 0 .93-.299 1.44-.818.515-.524 1.074-1.294 1.659-2.286l-.202-.12Zm-2.897 2.988a1.05 1.05 0 0 1-.32-.042l-.075.224c.086.028.217.054.395.054v-.236Zm-.305-.035c-.319-.16-.529-.598-.529-1.299h-.236c0 .727.218 1.288.66 1.51l.105-.211Zm-.529-1.299c0-.998.397-2.527 1.203-4.306l-.215-.097c-.812 1.79-1.224 3.356-1.224 4.403h.236Zm1.204-4.308a.204.204 0 0 1 .273-.105l.093-.216a.44.44 0 0 0-.583.228l.217.093Zm.273-.105c.111.048.146.168.108.244l.211.105c.104-.21-.003-.47-.226-.565l-.093.216Zm.106.247c-.931 2.03-1.224 3.404-1.224 4.19h.236c0-.737.278-2.076 1.202-4.091l-.214-.099Zm-1.224 4.19c0 .224.031.416.084.568a.662.662 0 0 0 .23.34l.131-.197c-.041-.028-.095-.095-.139-.22a1.531 1.531 0 0 1-.07-.491h-.236Zm.33.916a.37.37 0 0 0 .235.014c.082-.018.174-.057.275-.115.201-.115.448-.316.732-.622.57-.612 1.301-1.657 2.126-3.33l-.212-.104c-.818 1.66-1.537 2.684-2.086 3.274-.275.295-.504.478-.678.578a.767.767 0 0 1-.209.089c-.053.012-.078.005-.084.002l-.099.214Zm3.374-4.067c.024-.074.119-.122.208-.092l.074-.224c-.196-.065-.435.029-.506.241l.224.075Zm.208-.092c.08.026.133.112.133.221h.236c0-.176-.089-.377-.295-.445l-.074.224Zm.251.339h.024v-.236h-.024v.236Zm-.093-.131a12.884 12.884 0 0 0-.096 1.346h.235c0-.256.024-.68.095-1.32l-.234-.026Zm-.096 1.346c0 .322.012.615.049.845.019.115.044.22.081.305a.442.442 0 0 0 .163.21l.125-.2c-.019-.01-.045-.04-.071-.102a1.067 1.067 0 0 1-.065-.25 5.244 5.244 0 0 1-.047-.809h-.235Zm.356 1.26.006.118h.008l.011-.002a.512.512 0 0 0 .119-.043 1.44 1.44 0 0 0 .316-.229c.273-.248.684-.729 1.258-1.661l-.201-.124c-.568.923-.965 1.383-1.216 1.61a1.217 1.217 0 0 1-.262.194.255.255 0 0 1-.049.02h-.004.007l.007.118Zm1.719-1.82a23.67 23.67 0 0 0 1.101-2.08l-.215-.098a23.735 23.735 0 0 1-1.089 2.06l.203.118Zm1.049-2.233c-.65-.348-1.179-.88-1.404-1.286l-.206.114c.251.452.816 1.014 1.499 1.38l.111-.208Zm-1.393-1.258a.438.438 0 0 1-.011-.128.182.182 0 0 1 .019-.087l-.196-.13a.413.413 0 0 0-.059.204.75.75 0 0 0 .018.199l.229-.058Zm.015-.228a2.19 2.19 0 0 1 .33-.428c.195-.2.455-.397.755-.46l-.049-.231c-.366.078-.665.31-.875.527-.21.216-.342.428-.372.487l.211.105Zm1.094-.891a.747.747 0 0 1 .358.005c.136.03.273.085.381.15l.121-.203a1.548 1.548 0 0 0-.452-.177.97.97 0 0 0-.475-.001l.067.226Zm.73.149c.222.16.356.451.356.88h.236c0-.476-.151-.851-.453-1.07l-.139.19Zm.356.88c0 .317-.068.685-.208 1.105l.224.075c.145-.437.22-.83.22-1.18h-.236Zm-.14 1.252c.365.146.734.245 1.107.27l.015-.236a3.402 3.402 0 0 1-1.034-.253l-.088.219Zm1.104.27c.569.049 1.003-.073 1.275-.481l-.196-.13c-.205.306-.532.421-1.058.376l-.021.234Zm1.278-.486c.028-.047.116-.081.227-.026l.105-.211c-.175-.088-.42-.075-.534.116l.202.121Zm.227-.026a.172.172 0 0 1 .086.207l.218.088a.406.406 0 0 0-.199-.506l-.105.21Zm.084.212c-.548 1.548-1.12 3.312-1.383 4.292l.228.061c.26-.971.83-2.729 1.377-4.275l-.222-.078Zm-1.352 4.406.071.071.167-.166-.072-.072-.166.167Zm.238.071.238-.238-.167-.166-.238.238.167.166Zm.236-.236c.546-.522 1.286-1.215 1.931-1.883l-.17-.164c-.64.664-1.375 1.352-1.924 1.877l.163.17Zm-2.329-4.518.072-.024-.075-.224-.071.024.074.224Zm.147-.102c.312-1.033.048-1.358-.084-1.424l-.105.21c-.037-.018.27.133-.036 1.146l.225.068Zm-.076-1.42a.609.609 0 0 0-.441-.086l.047.231a.372.372 0 0 1 .273.057l.121-.202Zm-.446-.084c-.326.081-.586.347-.736.572l.196.13c.136-.203.352-.413.597-.474l-.057-.229Zm-.736.703c.202.303.574.648 1.017.894l.114-.206c-.414-.23-.756-.551-.935-.82l-.196.132Zm5.628 6.312-.06.101.008.005.008.003.044-.11Zm-.405-2.57.107.05.001-.002-.108-.048Zm.119-.262-.107-.05v.001l.107.049Zm2.975-2.713-.018.117h.009l.009-.117Zm.571.5.117-.015-.001-.005-.116.02Zm-3.07 2.57-.045-.11-.073.03v.08h.118Zm-.024.095h-.117v.284l.201-.2-.084-.084Zm.024-.024.109.046-.192-.13.083.084Zm.095 1.856.051-.106-.003-.001-.048.107Zm2.975-2.332-.093-.074-.005.01.098.064Zm.428-.095.066-.098-.007-.004-.006-.003-.053.105Zm.095.428.099.065.008-.013.005-.014-.112-.038Zm-1.142-2.332.11.042.027-.071-.054-.054-.083.083Zm-.095-.095.083-.083-.034-.035h-.049v.118Zm-.309.095.037.112.004-.001-.041-.11Zm-1.5 1.38-.098-.065-.053.08.068.069.083-.083Zm.072.072-.083.083.061.062.077-.04-.055-.105Zm-.262 3.404c-.246 0-.397-.044-.503-.087l-.088.219c.132.053.313.104.591.104v-.236Zm-.487-.079c-.366-.215-.632-.65-.632-1.207h-.236c0 .633.305 1.15.748 1.41l.12-.203Zm-.632-1.207c0-.366.068-.776.274-1.211l-.213-.1a3.02 3.02 0 0 0-.297 1.31h.236Zm.275-1.213.119-.261-.215-.098-.119.262.215.097Zm.118-.26c.47-1.022 1.042-1.708 1.57-2.126.533-.423 1.006-.561 1.28-.52l.035-.233c-.368-.055-.906.128-1.462.568-.56.444-1.154 1.162-1.637 2.212l.214.098Zm2.859-2.645c.259.02.426.173.464.401l.232-.038c-.057-.344-.319-.57-.678-.598l-.018.235Zm.463.397c.019.15-.023.325-.139.52a2.617 2.617 0 0 1-.561.624c-.514.436-1.293.888-2.298 1.302l.09.218c1.018-.42 1.821-.883 2.36-1.34.27-.228.477-.458.611-.683.134-.225.199-.453.171-.671l-.234.03Zm-3.071 2.555.001-.01-.006.02-.011.032c-.002.01-.007.03-.007.053h.235c0 .01-.002.015 0 .01l.006-.02a.328.328 0 0 0 .018-.085h-.236Zm.178.178.023-.023-.166-.167-.024.024.167.166Zm-.168-.152c-.195.461-.271.834-.271 1.116h.235c0-.242.066-.583.253-1.025l-.217-.091Zm-.271 1.116c0 .422.149.77.427.893l.095-.215c-.15-.067-.287-.291-.287-.678h-.235Zm.424.892c.149.07.341.069.553.01a2.47 2.47 0 0 0 .73-.365c.539-.374 1.18-1.022 1.84-2.019l-.196-.13c-.649.979-1.27 1.603-1.778 1.955a2.247 2.247 0 0 1-.658.332c-.184.05-.313.04-.39.004l-.101.213Zm3.117-2.365a.246.246 0 0 1 .283-.064l.106-.21a.481.481 0 0 0-.573.127l.184.147Zm.271-.07a.16.16 0 0 1 .068.115.403.403 0 0 1-.019.177l.223.075a.634.634 0 0 0 .029-.288.398.398 0 0 0-.17-.276l-.131.196Zm.062.264c-.601.908-1.206 1.558-1.752 1.98-.55.424-1.03.609-1.386.609v.236c.43 0 .961-.22 1.53-.659.571-.44 1.192-1.111 1.805-2.036l-.197-.13Zm-.961-2.35-.095-.095-.166.166.095.096.166-.167Zm-.178-.13a.276.276 0 0 0-.057.008 3.186 3.186 0 0 0-.294.095l.083.22a3.07 3.07 0 0 1 .262-.085c.014-.003.014-.002.006-.002v-.236Zm-.347.102c-.464.154-1.029.631-1.56 1.426l.197.13c.516-.774 1.045-1.202 1.438-1.333l-.075-.223Zm-1.545 1.575.072.071.166-.166-.071-.072-.167.167Zm.21.092c.684-.36 1.133-.68 1.421-.938.286-.256.421-.455.466-.576l-.22-.083c-.026.07-.129.239-.403.483-.27.242-.702.552-1.374.906l.11.208Z" fill="#525354" mask="url(#a)"></path>
  <path d="M25.98 39.994a16.289 16.289 0 0 0-.534-2.142 14.255 14.255 0 0 0 3.123-2.084c.376-.345.503-.48.31-.334-.096.073-.232.17-.41.285-.18.112-.395.249-.657.392-.519.293-1.203.638-2.05.986-.16.066-.333.13-.506.195a22.114 22.114 0 0 0-.834-2.024l.44-.227.712-.408.327-.192.303-.192.543-.351c.082-.055.164-.105.238-.158l.21-.152.352-.256c.404-.298.54-.418.337-.297-.205.121-.582.31-1.113.561l-.92.404c-.17.08-.357.147-.55.226l-.603.244c-.178.069-.367.14-.56.21-.417-.835-.899-1.695-1.457-2.573-.063-.099-.13-.2-.195-.299a27.209 27.209 0 0 0 1.45-1.113c.504-.401.945-.81 1.35-1.17.102-.09.198-.183.29-.272.092-.09.18-.177.267-.26l.481-.473c.291-.296.523-.554.7-.747.35-.388.465-.543.28-.378-.187.164-.541.424-1.04.783-.51.346-1.156.797-1.957 1.304l-.304.199c-.103.066-.212.131-.32.199l-.678.42c-.115.074-.236.144-.359.215l-.373.22-.362.217a37.025 37.025 0 0 0-.665-.924c-.383.043-.773.066-1.168.066-.099 0-.201-.009-.302-.01.392.475.774.952 1.136 1.43a43.034 43.034 0 0 1-3.615 1.804c-.172.076-.345.145-.516.218-.323.142-.648.263-.97.388-.108-.167-.21-.333-.328-.502a23.135 23.135 0 0 0-2.045-2.513 76.52 76.52 0 0 0 2.058-1.579l-.505-.138-.005-.641c0-.111-.003-.217-.005-.323l-2.23 1.968c-.218-.217-.433-.436-.665-.652a28.656 28.656 0 0 0-1.887-1.604c.066-.115.127-.227.195-.344a78.797 78.797 0 0 1 2.718-4.321 58.94 58.94 0 0 1 2.44 2.243l.564.269c.784.375 1.495.641 2.112.792.145.036.288.066.432.094a69.633 69.633 0 0 0 3.106-2.94c-.13-.132-.296-.292-.511-.489l-.295-.266-3.276 2.872-.038-.04a45.227 45.227 0 0 0-3.857-3.52 81.02 81.02 0 0 1 2.737-3.685 4.964 4.964 0 0 1-.318-.588 3.609 3.609 0 0 1-.15-.409c-.266.28-.537.566-.814.876a39.592 39.592 0 0 0-2.44 3.027 42.08 42.08 0 0 0-1.621-1.183 35.746 35.746 0 0 0-2.128-1.364 29.232 29.232 0 0 1 2.99-4.991 68.947 68.947 0 0 1 3.627 2.643c.077.06.152.122.228.183a4.66 4.66 0 0 1-.03-.668c.01-.295.059-.58.124-.863l-.134-.102c-.1-.076-.198-.151-.298-.225l-.302-.215c-.2-.143-.402-.285-.601-.426l-.606-.405-.3-.2c-.102-.063-.203-.126-.303-.19l-.6-.374-.109-.065a34.464 34.464 0 0 1 1.652-1.92c.163-.172.319-.347.48-.51l.472-.482c.156-.156.313-.305.463-.453l.224-.22.224-.208c.387-.362.752-.69 1.092-.989l.14.08.615.337c.2.112.388.23.574.338.371.218.72.42 1.04.6 1.241.769 2.007 1.183 1.737.977-.135-.102-.352-.309-.655-.6-.153-.147-.326-.315-.521-.501-.099-.093-.2-.195-.312-.293l-.355-.307a48.31 48.31 0 0 0-.818-.685c-.074-.06-.148-.124-.228-.182l-.243-.18a22.67 22.67 0 0 0-.267-.19c.385-.325.718-.598.978-.81.614-.489.829-.682.52-.469-.154.106-.372.245-.651.418-.14.087-.29.188-.457.294-.166.108-.35.222-.543.352l-.074.05-.02-.016a59.554 59.554 0 0 0-.551-.387c-.194-.125-.398-.247-.606-.374-.209-.126-.423-.255-.644-.384-.108-.066-.226-.124-.342-.183-.118-.06-.235-.12-.356-.18-.24-.12-.478-.242-.719-.352a44.795 44.795 0 0 0-.407-.169c.344-.231.688-.455 1.028-.664a33.046 33.046 0 0 1 3.003-1.64c.12-.06.237-.113.354-.17.437.173.863.351 1.268.532l.298.13c.096.047.192.091.286.136.19.09.376.172.552.262.177.088.35.172.514.252l.468.244c.595.31 1.063.569 1.352.725.29.155.405.2.279.108-.127-.091-.33-.278-.617-.54l-.504-.436c-.19-.163-.409-.332-.646-.52a16.13 16.13 0 0 0-1.769-1.175c-.127-.072-.263-.144-.397-.215 1.231-.542 2.254-.924 2.948-1.187.956-.345 1.302-.486.837-.344-.232.072-.556.161-.966.272-.206.052-.43.125-.676.196l-.804.236a48.06 48.06 0 0 0-1.784.601 14.616 14.616 0 0 0-1.622-.68c-.159-.056-.318-.105-.477-.154 1.556-.391 3.184-.6 4.862-.6 5.45 0 10.377 2.183 13.967 5.726C32.144 2.532 26.765 0 20.782 0 9.3 0 0 9.286 0 20.736c0 11.45 9.3 20.73 20.782 20.73 7.443 0 13.946-3.906 17.621-9.76a19.79 19.79 0 0 1-12.423 8.288Zm-1.977-3.638c.204.4.388.792.56 1.18-1.552.51-3.5.932-5.803 1.008-.284.01-.566.01-.847.01-.08-.32-.184-.664-.306-1.023.148-.022.293-.037.442-.063a21.494 21.494 0 0 0 4.223-1.211l.476-.19c.155-.066.306-.138.456-.205l.43-.197c.127.231.253.463.37.691Zm-7.268-1.463.134-.046.13-.05.266-.103c.177-.071.358-.139.537-.215.177-.078.356-.159.537-.238a23.741 23.741 0 0 0 3.245-1.808A33.382 33.382 0 0 1 23.255 35a35.06 35.06 0 0 1-5.389 1.415c-.218.035-.434.066-.651.099-.21-.489-.46-.998-.756-1.526l.277-.095Zm-5.381-4.565c.204.19.4.385.598.579l-1.806 1.601-.982.875c-.125-.128-.25-.257-.385-.383-.274-.253-.56-.484-.85-.705.157-.337.329-.697.518-1.082.35-.712.768-1.505 1.238-2.355a42.66 42.66 0 0 1 1.669 1.47Zm-.55-8.95c.44.342.888.702 1.34 1.077-.024.036-.05.07-.075.107-.26.396-.526.785-.767 1.185l-.365.593-.346.596-.17.295-.162.296-.318.588-.299.587-.146.287-.139.29-.01.02a29.46 29.46 0 0 0-1.55-1.062 26.97 26.97 0 0 0-.9-.542c.04-.21.071-.415.115-.63.196-.936.45-1.911.776-2.911.252-.767.543-1.55.882-2.337.692.476 1.405.996 2.133 1.56Zm-4.11.518a23.676 23.676 0 0 0-.697 3.248l-.007.053a19.98 19.98 0 0 0-1.622-.766 4.29 4.29 0 0 0-.004-.111v-.213l-.004-.429.006-.436.004-.22.01-.222.017-.449.031-.453.015-.23.022-.23c.05-.618.14-1.247.246-1.888l.089-.482c.028-.162.067-.323.101-.485.059-.292.137-.583.21-.877.12.059.24.116.362.18.703.36 1.442.792 2.207 1.28a24.23 24.23 0 0 0-.985 2.73Zm1.343-3.512a23.266 23.266 0 0 0-2.753-1.285c.022-.079.043-.157.068-.235l.081-.246c.056-.165.105-.332.165-.496l.182-.495.046-.125.051-.123.102-.247c.067-.165.133-.332.21-.495l.226-.493.246-.49c.042-.081.08-.165.125-.244l.134-.24.133-.24c.045-.081.087-.162.137-.24l.283-.468.072-.117.075-.114.151-.228.15-.227.073-.11c.961.558 2.039 1.216 3.209 1.983a24.391 24.391 0 0 0-3.166 4.975Zm6.79-11.437.347.172c.115.058.232.111.343.175.226.123.451.243.675.361l.335.175.166.086c.055.028.109.061.162.091l.14.08c-.589.415-1.246.902-1.969 1.495a28.821 28.821 0 0 0-3.12 2.996l-.242-.134c-.197-.109-.39-.216-.583-.321a679.175 679.175 0 0 1-.857-.446l-.281-.138c-.186-.092-.369-.182-.55-.268a42.592 42.592 0 0 0-.969-.441l.05-.069.085-.107.167-.213.167-.211c.056-.07.11-.142.17-.21a23.175 23.175 0 0 1 4.147-3.863 36.483 36.483 0 0 0 .939.444l.678.346Zm.607-5.002a29.229 29.229 0 0 1 2.512.812c-.41.166-.835.347-1.277.547l-.324.145-.326.16-.671.332c-.226.118-.453.244-.686.37l-.353.191-.35.209-.358.213a8.168 8.168 0 0 0-.314.195l-.138-.048c-.239-.08-.474-.157-.703-.23a15.767 15.767 0 0 0-1.856-.412 19.698 19.698 0 0 1 4.845-2.484ZM9.96 4.885l.145.044c.315.09.648.222 1.008.347.045.017.09.03.135.048.045.02.09.038.137.056.091.038.184.075.28.113l.287.114c.05.02.099.04.148.058.049.02.097.044.147.066l.07.03-.535.383c-.125.086-.244.184-.366.278l-.369.288a21.3 21.3 0 0 0-2.873 2.775c-.111.137-.224.273-.337.411l-.17.208c-.056.07-.11.144-.164.215l-.068.091-.08-.033c-.718-.29-1.357-.52-1.901-.703a19.916 19.916 0 0 1 4.506-4.79ZM5.28 9.943c.505.257 1.109.577 1.795.958l-.213.309c-.214.303-.404.626-.605.948-.098.162-.187.331-.281.498l-.14.252c-.048.085-.088.172-.133.258l-.26.52-.238.527c-.082.175-.151.354-.223.532l-.107.266-.052.133-.048.135-.19.538c-.061.18-.114.362-.17.542-.029.089-.057.18-.083.27l-.033.122c-.6-.188-1.166-.316-1.695-.392a19.66 19.66 0 0 1 2.676-6.416ZM2.14 20.624c0-1.336.134-2.639.386-3.899.22.054.443.114.676.19.308.101.63.223.96.36-.016.056-.03.112-.042.167l-.124.542c-.04.18-.07.362-.106.54l-.051.27-.042.269c-.027.18-.059.358-.08.536a23.465 23.465 0 0 0-.178 2.105c-.026.688-.018 1.361.008 2.014.007.135.018.266.026.4a9.76 9.76 0 0 0-1.18-.341 19.955 19.955 0 0 1-.253-3.154Zm.323 3.536c.355.135.738.307 1.148.514.027.318.057.631.093.937a28.456 28.456 0 0 0 .97 4.678 19.55 19.55 0 0 1-2.211-6.13Zm2.676 6.377a31.663 31.663 0 0 1-.745-5.44c.475.27.973.575 1.497.917a23.645 23.645 0 0 0-.015 4.778l.032.28a8.17 8.17 0 0 0-.71-.283 9.438 9.438 0 0 1-.059-.252Zm.487 1.282c.075.046.149.086.224.134.064.04.129.087.192.128.023.142.046.282.07.415a20.727 20.727 0 0 1-.486-.677Zm.808-1.718c.007-.363.026-.743.049-1.137a25.958 25.958 0 0 1 .259-2.373c.234.164.47.329.71.506.476.35.967.73 1.464 1.129l-.081.182c-.084.183-.16.367-.236.548-.075.182-.152.358-.222.535-.281.705-.52 1.372-.72 1.982-.056.172-.108.338-.158.501-.35-.242-.709-.453-1.066-.642-.008-.388-.01-.796 0-1.23Zm.74 3.021c-.046.185-.087.356-.125.518-.178-.203-.353-.41-.523-.62a29.548 29.548 0 0 1-.048-.644c.245.176.494.368.744.57l-.047.176Zm.07.743c.083-.203.178-.428.283-.671.196.166.392.338.59.52.111.103.218.21.326.316-.219.197-.406.367-.56.508a19.28 19.28 0 0 1-.639-.673Zm.728.765.658-.418c.38.383.737.78 1.059 1.18l-.2.019c-.23.011-.445.026-.646.03-.297-.263-.59-.532-.87-.811Zm2.35 1.994a20.395 20.395 0 0 1-.989-.76c.235.03.492.05.761.066.008.01.017.02.024.032.163.23.309.462.445.691l-.242-.029Zm-.871-2.943a80.045 80.045 0 0 0 3.135-2.147c.865.882 1.67 1.789 2.367 2.696l.006.008c-.07.025-.139.05-.208.071l-.497.162-.123.04-.123.036-.245.072c-.324.1-.645.177-.956.26l-.464.108-.227.052-.225.044c-.433.09-.839.153-1.23.205a10.267 10.267 0 0 0-1.21-1.606Zm1.577 2.27c.409-.002.837-.021 1.298-.059.29-.033.594-.058.903-.11.155-.024.313-.047.472-.074l.482-.096.246-.05c.082-.018.164-.038.247-.058l.504-.123c.166-.046.334-.096.505-.145.318.465.605.923.86 1.37-.267.035-.533.07-.797.093-.346.04-.689.055-1.026.081-.17.011-.337.014-.502.022-.167.007-.33.015-.493.014l-.483.006-.47-.008c-.078-.002-.155-.002-.231-.005l-.227-.01c-.15-.008-.299-.01-.445-.022-.178-.01-.344-.027-.513-.041a7.505 7.505 0 0 0-.33-.785ZM12.495 38c-.309-.168-.61-.345-.91-.529-.001-.01-.004-.02-.007-.03.692.13 1.456.232 2.292.28.987.051 2.067.02 3.203-.116a13.45 13.45 0 0 1 .412.945 26.68 26.68 0 0 1-2.954-.215 29.865 29.865 0 0 1-2.036-.335Zm3.069 1.34c.712.1 1.47.163 2.26.178l.033.104c.04.134.068.25.1.373a19.497 19.497 0 0 1-2.393-.655Zm6.41 1.062c-1.298 0-2.565-.128-3.794-.366-.01-.087-.017-.168-.03-.261-.01-.08-.029-.173-.042-.258.228.001.453.006.686-.002a16.378 16.378 0 0 0 4.417-.752c.575-.18 1.11-.394 1.613-.617.169.417.323.828.452 1.223.08.246.148.484.213.718a19.992 19.992 0 0 1-3.514.315Z" fill="#9E9E9E"></path>
  <path d="M27.243 17.056c-.362.452-1.389 1.498-3.004 3-.142.134-.292.272-.443.413.2.181.381.349.538.5.337-.393.651-.771.935-1.125.1-.123.195-.242.288-.36.092-.116.18-.233.266-.344.17-.224.33-.43.473-.627.283-.393.519-.718.685-.975.335-.512.443-.707.262-.482Z" fill="#9E9E9E"></path>
  <path d="M15.871 28.513a23.19 23.19 0 0 0-.086-1.986c.827.4 1.574.684 2.238.848a8.022 8.022 0 0 0 1.926.247c.595 0 1.153-.102 1.672-.306.52-.205.914-.494 1.185-.867.27-.373.415-.8.43-1.283.011-.28-.024-.543-.103-.787a2.639 2.639 0 0 0-.397-.746c-.186-.253-.512-.594-.976-1.023a132.671 132.671 0 0 0-1.981-1.776l-.854-.758a12.209 12.209 0 0 1-.875-.86 6.878 6.878 0 0 1-.65-.819 4.545 4.545 0 0 1-.398-.71 3.17 3.17 0 0 1-.208-.71 3.817 3.817 0 0 1-.056-.801c.024-.691.232-1.337.627-1.938.393-.601.971-1.083 1.734-1.444.762-.362 1.758-.543 2.988-.543.882 0 1.962.12 3.239.361-.002.517.031 1.151.101 1.902-1.2-.433-2.294-.65-3.287-.65-.683 0-1.257.114-1.726.341-.468.228-.827.52-1.077.875s-.383.72-.396 1.096a2.204 2.204 0 0 0 .338 1.265c.172.28.39.563.65.848.26.285.621.633 1.083 1.041.116.096.557.473 1.324 1.132.767.657 1.325 1.167 1.674 1.53.349.36.625.696.828 1.004a3.597 3.597 0 0 1 .604 2.161 3.972 3.972 0 0 1-.473 1.776 3.65 3.65 0 0 1-1.224 1.33 5.242 5.242 0 0 1-1.734.735 8.826 8.826 0 0 1-1.972.217c-.547 0-1.112-.042-1.692-.127-.582-.087-1.407-.278-2.476-.575ZM30.628 28.979l.465-4.543.64-8.493.103-1.85c.025-.466.048-1.002.069-1.606 1.83.008 3.705.012 5.624.012l3.876-.012h1.239c-.076.56-.133 1.123-.17 1.691l-1.078-.06a31.591 31.591 0 0 0-1.379-.037c-.651-.008-1.297-.012-1.938-.012-1.912 0-3.244.012-4 .037l-.42 5.654c1.248.023 2.365.035 3.354.035 1.078 0 2.493-.016 4.244-.048-.076.563-.133 1.119-.168 1.667l-4.18-.036c-.819 0-1.959.017-3.418.05l-.43 5.968 1.265.012a271.8 271.8 0 0 0 4.568-.024 74.4 74.4 0 0 0 2.636-.11 27.062 27.062 0 0 0-.17 1.704c-1.952-.017-3.6-.025-4.945-.025l-5.787.026ZM47.12 28.979c.262-2.078.512-4.617.754-7.618.241-3 .43-5.958.566-8.874.566.008.995.012 1.291.012l1.144-.012-.664 7.654-.55 7.219 2.332.012c1.738 0 2.959-.005 3.669-.018a48.206 48.206 0 0 0 2.06-.078c-.068.51-.128 1.078-.184 1.703-1.858-.017-3.5-.025-4.925-.025l-5.493.025ZM61.964 28.979l.272-2.779.447-5.787.362-5.703c.019-.33.035-.66.046-.99l.03-1.233 1.224.012 1.153-.012c-.212 2.013-.39 4.116-.537 6.307a545.752 545.752 0 0 0-.622 10.185l-1.116-.025c-.142 0-.561.008-1.26.025ZM69.826 28.513a23.027 23.027 0 0 0-.088-1.986c.848.4 1.613.684 2.295.848.68.164 1.338.247 1.972.247.61 0 1.18-.102 1.713-.306.531-.205.936-.494 1.214-.867.277-.373.424-.8.442-1.283a2.207 2.207 0 0 0-.107-.787 2.594 2.594 0 0 0-.406-.746c-.19-.253-.523-.594-1-1.023a139.558 139.558 0 0 0-2.03-1.776l-.875-.758c-.33-.289-.63-.576-.896-.86a6.918 6.918 0 0 1-.667-.819 4.418 4.418 0 0 1-.407-.71 3.06 3.06 0 0 1-.213-.71 3.656 3.656 0 0 1-.057-.801c.024-.691.238-1.337.642-1.938.403-.601.996-1.083 1.777-1.444.78-.362 1.802-.543 3.062-.543.903 0 2.009.12 3.317.361-.001.517.033 1.151.104 1.902-1.229-.433-2.352-.65-3.369-.65-.698 0-1.29.114-1.768.341-.48.228-.849.52-1.106.875-.256.355-.392.72-.405 1.096a2.21 2.21 0 0 0 .075.656c.058.212.148.415.271.608.177.281.4.564.665.85.267.284.637.632 1.11 1.04.119.096.57.473 1.357 1.132.785.657 1.358 1.167 1.715 1.53.358.36.64.696.85 1.004.208.31.366.643.476 1 .11.357.157.744.142 1.162a3.874 3.874 0 0 1-.484 1.775c-.3.542-.719.985-1.255 1.33a5.46 5.46 0 0 1-1.777.735 9.247 9.247 0 0 1-2.02.217c-.561 0-1.139-.042-1.733-.127-.595-.087-1.44-.278-2.535-.575ZM84.816 28.979l.465-4.543.641-8.493.101-1.85c.025-.466.048-1.002.07-1.606 1.83.008 3.704.012 5.624.012l3.875-.012h1.24c-.076.56-.133 1.123-.169 1.691l-1.08-.06a31.55 31.55 0 0 0-1.378-.037c-.653-.008-1.298-.012-1.939-.012-1.912 0-3.245.012-4 .037l-.418 5.654c1.246.023 2.364.035 3.353.035 1.078 0 2.493-.016 4.244-.048-.076.563-.132 1.119-.168 1.667l-4.181-.036c-.819 0-1.959.017-3.417.05l-.43 5.968 1.264.012c2.294 0 3.817-.008 4.568-.024.749-.016 1.628-.052 2.635-.11a26.987 26.987 0 0 0-.17 1.704c-1.952-.017-3.6-.025-4.944-.025l-5.786.026Z" fill="#fff"></path>
  <path d="M15.871 28.513a23.19 23.19 0 0 0-.086-1.986c.827.4 1.574.684 2.238.848a8.022 8.022 0 0 0 1.926.247c.595 0 1.153-.102 1.672-.306.52-.205.914-.494 1.185-.867.27-.373.415-.8.43-1.283.011-.28-.024-.543-.103-.787a2.639 2.639 0 0 0-.397-.746c-.186-.253-.512-.594-.976-1.023a132.671 132.671 0 0 0-1.981-1.776l-.854-.758a12.209 12.209 0 0 1-.875-.86 6.878 6.878 0 0 1-.65-.819 4.545 4.545 0 0 1-.398-.71 3.17 3.17 0 0 1-.208-.71 3.817 3.817 0 0 1-.056-.801c.024-.691.232-1.337.627-1.938.393-.601.971-1.083 1.734-1.444.762-.362 1.758-.543 2.988-.543.882 0 1.962.12 3.239.361-.002.517.031 1.151.101 1.902-1.2-.433-2.294-.65-3.287-.65-.683 0-1.257.114-1.726.341-.468.228-.827.52-1.077.875s-.383.72-.396 1.096a2.204 2.204 0 0 0 .338 1.265c.172.28.39.563.65.848.26.285.621.633 1.083 1.041.116.096.557.473 1.324 1.132.767.657 1.325 1.167 1.674 1.53.349.36.625.696.828 1.004a3.597 3.597 0 0 1 .604 2.161 3.972 3.972 0 0 1-.473 1.776 3.65 3.65 0 0 1-1.224 1.33 5.242 5.242 0 0 1-1.734.735 8.826 8.826 0 0 1-1.972.217c-.547 0-1.112-.042-1.692-.127-.582-.087-1.407-.278-2.476-.575ZM30.628 28.979l.465-4.543.64-8.493.103-1.85c.025-.466.048-1.002.069-1.606 1.83.008 3.705.012 5.624.012l3.876-.012h1.239c-.076.56-.133 1.123-.17 1.691l-1.078-.06a31.591 31.591 0 0 0-1.379-.037c-.651-.008-1.297-.012-1.938-.012-1.912 0-3.244.012-4 .037l-.42 5.654c1.248.023 2.365.035 3.354.035 1.078 0 2.493-.016 4.244-.048-.076.563-.133 1.119-.168 1.667l-4.18-.036c-.819 0-1.959.017-3.418.05l-.43 5.968 1.265.012a271.8 271.8 0 0 0 4.568-.024 74.4 74.4 0 0 0 2.636-.11 27.062 27.062 0 0 0-.17 1.704c-1.952-.017-3.6-.025-4.945-.025l-5.787.026ZM47.12 28.979c.262-2.078.512-4.617.754-7.618.241-3 .43-5.958.566-8.874.566.008.995.012 1.291.012l1.144-.012-.664 7.654-.55 7.219 2.332.012c1.738 0 2.959-.005 3.669-.018a48.206 48.206 0 0 0 2.06-.078c-.068.51-.128 1.078-.184 1.703-1.858-.017-3.5-.025-4.925-.025l-5.493.025ZM61.964 28.979l.272-2.779.447-5.787.362-5.703c.019-.33.035-.66.046-.99l.03-1.233 1.224.012 1.153-.012c-.212 2.013-.39 4.116-.537 6.307a545.752 545.752 0 0 0-.622 10.185l-1.116-.025c-.142 0-.561.008-1.26.025ZM69.826 28.513a23.027 23.027 0 0 0-.088-1.986c.848.4 1.613.684 2.295.848.68.164 1.338.247 1.972.247.61 0 1.18-.102 1.713-.306.531-.205.936-.494 1.214-.867.277-.373.424-.8.442-1.283a2.207 2.207 0 0 0-.107-.787 2.594 2.594 0 0 0-.406-.746c-.19-.253-.523-.594-1-1.023a139.558 139.558 0 0 0-2.03-1.776l-.875-.758c-.33-.289-.63-.576-.896-.86a6.918 6.918 0 0 1-.667-.819 4.418 4.418 0 0 1-.407-.71 3.06 3.06 0 0 1-.213-.71 3.656 3.656 0 0 1-.057-.801c.024-.691.238-1.337.642-1.938.403-.601.996-1.083 1.777-1.444.78-.362 1.802-.543 3.062-.543.903 0 2.009.12 3.317.361-.001.517.033 1.151.104 1.902-1.229-.433-2.352-.65-3.369-.65-.698 0-1.29.114-1.768.341-.48.228-.849.52-1.106.875-.256.355-.392.72-.405 1.096a2.21 2.21 0 0 0 .075.656c.058.212.148.415.271.608.177.281.4.564.665.85.267.284.637.632 1.11 1.04.119.096.57.473 1.357 1.132.785.657 1.358 1.167 1.715 1.53.358.36.64.696.85 1.004.208.31.366.643.476 1 .11.357.157.744.142 1.162a3.874 3.874 0 0 1-.484 1.775c-.3.542-.719.985-1.255 1.33a5.46 5.46 0 0 1-1.777.735 9.247 9.247 0 0 1-2.02.217c-.561 0-1.139-.042-1.733-.127-.595-.087-1.44-.278-2.535-.575ZM84.816 28.979l.465-4.543.641-8.493.101-1.85c.025-.466.048-1.002.07-1.606 1.83.008 3.704.012 5.624.012l3.875-.012h1.24c-.076.56-.133 1.123-.169 1.691l-1.08-.06a31.55 31.55 0 0 0-1.378-.037c-.653-.008-1.298-.012-1.939-.012-1.912 0-3.245.012-4 .037l-.418 5.654c1.246.023 2.364.035 3.353.035 1.078 0 2.493-.016 4.244-.048-.076.563-.132 1.119-.168 1.667l-4.181-.036c-.819 0-1.959.017-3.417.05l-.43 5.968 1.264.012c2.294 0 3.817-.008 4.568-.024.749-.016 1.628-.052 2.635-.11a26.987 26.987 0 0 0-.17 1.704c-1.952-.017-3.6-.025-4.944-.025l-5.786.026Z" fill="#0066B2"></path>
</svg>
